<svg width="1053" height="310" xmlns="http://www.w3.org/2000/svg"><g fill="none" fill-rule="evenodd"><g fill-rule="nonzero"><path d="M922.3 79h61.4v142h-61.4V79zm0 145h61v17h-61v-17zm0 20h61v18h-61v-18zm0 22h61v39a4 4 0 01-4 4h-57v-43zM926 83v73h8V83h-8zm46 0v73h8V83h-8zm-25 0v73h12V83h-12z" fill="#E0E6ED"/><path d="M918.4 52.3v26.2c0 .4.3.7.7.7h67.8c.4 0 .7-.3.7-.7V52.3h-69.2z" stroke="#E0E6ED" stroke-width="4.2"/><path d="M923.7 85.4h-13c-.8 0-1.4.6-1.4 1.4v57.7c0 .3 0 .6.2.8l14.2 19.1v-79zM982.2 85.4h11.5c1.6 0 2.8 1.3 2.8 2.8V144c0 .6-.2 1.2-.5 1.7l-13.8 18.7v-79z" fill="#E0E6ED"/><path d="M919.5 61.6h68M918.5 70h69" stroke="#E0E6ED" stroke-width="4.2" stroke-linecap="square"/><path d="M936.4 30h33.8c.7 0 1.3.2 1.8.6L991.7 47a2.8 2.8 0 01-1.8 5h-73.7a2.8 2.8 0 01-1.8-5l20.3-16.4c.5-.4 1.1-.6 1.7-.6z" fill="#E0E6ED"/><path d="M939.8 51.9V79M966 51.9V79" stroke="#E0E6ED" stroke-width="4.2" stroke-linecap="square"/></g><g transform="translate(161 60)" fill-rule="nonzero"><path d="M45.6 108.6l21.3-24.2a2 2 0 012.9 0L91 108.6V209H45.6V108.6zm13.3 13.5c-1 0-2 .8-2 2v27.1c0 1 1 2 2 2h5.4c1.1 0 2-1 2-2V124c0-1-.9-2-2-2H59zm0 34.1c-1 0-2 .9-2 2v27.2c0 1 1 1.9 2 1.9h5.4c1.1 0 2-.9 2-2v-27.1c0-1.1-.9-2-2-2H59zm12.4-55.8c-1 0-2 .8-2 1.9V114c0 1 1 1.9 2 1.9h3.4c1 0 2-.9 2-2v-11.6c0-1-1-2-2-2h-3.4zm1 21.7c-1 0-1.9.8-1.9 2v27.1c0 1 .9 2 2 2h5.4c1 0 2-1 2-2V124c0-1-1-2-2-2h-5.5zm0 34.1c-1 0-1.9.9-1.9 2v27.2c0 1 .9 1.9 2 1.9h5.4c1 0 2-.9 2-2v-27.1c0-1.1-1-2-2-2h-5.5zM61 100.4c-1 0-1.9.8-1.9 1.9V114c0 1 .9 1.9 2 1.9h3.3c1.1 0 2-.9 2-2v-11.6c0-1-.9-2-2-2H61zM175 108.6l21.3-24.2a2 2 0 013 0l21.2 24.2V209H175V108.6zm13.3 13.5c-1 0-2 .8-2 2v27.1c0 1 1 2 2 2h5.5c1 0 1.9-1 1.9-2V124c0-1-.9-2-2-2h-5.4zm13.5-21.7c-1.1 0-2 .8-2 1.9V114c0 1 .9 1.9 2 1.9h3.4c1 0 1.9-.9 1.9-2v-11.6c0-1-.9-2-2-2h-3.3zm-13.5 55.8c-1 0-2 .9-2 2v27.2c0 1 1 1.9 2 1.9h5.5c1 0 1.9-.9 1.9-2v-27.1c0-1.1-.9-2-2-2h-5.4zm13.5-34.1c-1.1 0-2 .8-2 2v27.1c0 1 .9 2 2 2h5.4c1.1 0 2-1 2-2V124c0-1-.9-2-2-2h-5.4zm-10.4-21.7c-1 0-2 .8-2 1.9V114c0 1 1 1.9 2 1.9h3.4c1 0 2-.9 2-2v-11.6c0-1-1-2-2-2h-3.4zm10.4 55.8c-1.1 0-2 .9-2 2v27.2c0 1 .9 1.9 2 1.9h5.4c1.1 0 2-.9 2-2v-27.1c0-1.1-.9-2-2-2h-5.4z" fill="#E0E6ED"/><path d="M218 108l20.8-23.6a2 2 0 012.9 0l21.3 24.2v98.5c0 1-.9 1.9-2 1.9h-43.6v-99.6c0-.5.2-1 .5-1.3zm12.8 13c-1.1 0-2 1-2 2v27.2c0 1 .9 1.9 2 1.9h5.4c1 0 2-.9 2-2V123c0-1-1-2-2-2h-5.4zm12.4-20.6c-1 0-2 .8-2 1.9V114c0 1 1 1.9 2 1.9h3.4c1 0 1.9-.9 1.9-2v-11.6c0-1-.9-2-2-2h-3.3zm-12.4 54.8c-1.1 0-2 .9-2 2v27.1c0 1 .9 2 2 2h5.4c1 0 2-1 2-2v-27.2c0-1-1-1.9-2-1.9h-5.4zm13.4-34.1c-1 0-2 .8-2 1.9v27.2c0 1 1 1.9 2 1.9h5.5c1 0 2-.9 2-2V123c0-1-1-2-2-2h-5.5zm-11.4-20.7c-1 0-1.9.8-1.9 1.9V114c0 1 .9 1.9 2 1.9h3.3c1 0 2-.9 2-2v-11.6c0-1-1-2-2-2h-3.4zm11.4 54.8c-1 0-2 .9-2 2v27.1c0 1 1 2 2 2h5.5c1 0 2-1 2-2v-27.2c0-1-1-1.9-2-1.9h-5.5zM92.8 26.9h80.5c2.6 0 4.8 2.2 4.8 4.8V209H88V31.7c0-2.6 2-4.8 4.7-4.8zm18.9 18.6c-1 0-2 .9-2 2v27.1c0 1.1 1 2 2 2h5.5c1 0 1.9-.9 1.9-2V47.4c0-1-.9-1.9-2-1.9h-5.4zm26.9 0c-1 0-2 .9-2 2v27.1c0 1.1 1 2 2 2h5.5c1 0 1.9-.9 1.9-2V47.4c0-1-.9-1.9-2-1.9h-5.4zm-27 34.2c-1 0-1.8.8-1.8 1.9v27.2c0 1 .8 2 1.9 2h5.5c1 0 1.9-1 1.9-2V81.6c0-1-.9-2-2-2h-5.4zm27 0c-1 0-2 .8-2 1.9v27.2c0 1 1 2 2 2h5.5c1 0 1.9-1 1.9-2V81.6c0-1-.9-2-2-2h-5.4zm0 34.1c-1 0-2 .9-2 2v16.8c0 1 1 1.9 2 1.9h5.5c1 0 1.9-.9 1.9-2v-16.8c0-1-.9-1.9-2-1.9h-5.4zm-27 0c-1 0-1.8.9-1.8 2v16.8c0 1 .8 1.9 1.9 1.9h5.5c1 0 1.9-.9 1.9-2v-16.8c0-1-.9-1.9-2-1.9h-5.4zm13.5-68.3c-1 0-1.9.9-1.9 2v27.1c0 1.1.9 2 2 2h5.4c1 0 2-.9 2-2V47.4c0-1-1-1.9-2-1.9h-5.5zm27 0c-1.1 0-2 .9-2 2v27.1c0 1.1.9 2 2 2h5.4c1.1 0 2-.9 2-2V47.4c0-1-.9-1.9-2-1.9h-5.4zm-27 34.2c-1 0-1.9.8-1.9 1.9v27.2c0 1 .9 2 2 2h5.4c1 0 2-1 2-2V81.6c0-1-1-2-2-2h-5.5zm0 34.1c-1 0-1.9.9-1.9 2v16.8c0 1 .9 1.9 2 1.9h5.4c1 0 2-.9 2-2v-16.8c0-1-1-1.9-2-1.9h-5.5zm27 0c-1.1 0-2 .9-2 2v16.8c0 1 .9 1.9 2 1.9h5.4c1.1 0 2-.9 2-2v-16.8c0-1-.9-1.9-2-1.9h-5.4zm12 0c-1.1 0-2 .9-2 2v16.8c0 1 .9 1.9 2 1.9h5.4c1.1 0 2-.9 2-2v-16.8c0-1-.9-1.9-2-1.9h-5.4zm-12-34.1c-1.1 0-2 .8-2 1.9v27.2c0 1 .9 2 2 2h5.4c1.1 0 2-1 2-2V81.6c0-1-.9-2-2-2h-5.4zm-19 59a27.4 27.4 0 00-27.5 27.4v42.8h54.9v-42.8a27.4 27.4 0 00-27.4-27.5zm-34.9-24.9h5.5c1 0 2 .9 2 2v16.8c0 1-1 1.9-2 1.9h-5.5c-1 0-1.9-.9-1.9-2v-16.8c0-1 .9-1.9 2-1.9zm0 0h5.5c1 0 2 .9 2 2v16.8c0 1-1 1.9-2 1.9h-5.5c-1 0-1.9-.9-1.9-2v-16.8c0-1 .9-1.9 2-1.9zM2 108.6h46.7V209H1.9c-1 0-1.9-.9-1.9-2v-96.4c0-1.1.9-2 2-2zm12.3 13.5c-1 0-1.9.8-1.9 2v27.1c0 1 .9 2 2 2h5.4c1 0 2-1 2-2V124c0-1-1-2-2-2h-5.5zm0 34.1c-1 0-1.9.9-1.9 2v27.2c0 1 .9 1.9 2 1.9h5.4c1 0 2-.9 2-2v-27.1c0-1.1-1-2-2-2h-5.5zm13.5-34.1c-1 0-2 .8-2 2v27.1c0 1 1 2 2 2h5.5c1 0 1.9-1 1.9-2V124c0-1-.9-2-2-2h-5.4zm0 34.1c-1 0-2 .9-2 2v27.2c0 1 1 1.9 2 1.9h5.5c1 0 1.9-.9 1.9-2v-27.1c0-1.1-.9-2-2-2h-5.4z" fill="#E0E6ED"/><rect fill="#F0F4F8" x="96.3" y="113.8" width="9.3" height="20.7" rx="1.9"/><path d="M127.9 1.6v25.3" stroke="#E0E6ED" stroke-width="2.9" stroke-linecap="square"/><path fill="#E0E6ED" d="M126.3 0h30v17.6h-30z"/><path d="M133 141.2v65.2" stroke="#E0E6ED" stroke-width="2.9" stroke-linecap="square"/><circle stroke="#E0E6ED" stroke-width="1.9" cx="141.9" cy="176.9" r="2.1"/><circle stroke="#E0E6ED" stroke-width="1.9" cx="124.3" cy="176.9" r="2.1"/></g><path d="M597 108h243v158.4c0 1.4-1.2 2.6-2.6 2.6H599.6a2.6 2.6 0 01-2.6-2.6V108zm29 10.6a2.6 2.6 0 00-2.6 2.6V169c0 1.5 1.2 2.7 2.6 2.7h10.6c1.5 0 2.7-1.2 2.7-2.7v-47.7c0-1.4-1.2-2.6-2.7-2.6H626zm29 0a2.6 2.6 0 00-2.5 2.6V169c0 1.5 1.1 2.7 2.6 2.7h10.6c1.4 0 2.6-1.2 2.6-2.7v-47.7c0-1.4-1.2-2.6-2.6-2.6H655zm29.1 0a2.6 2.6 0 00-2.6 2.6V169c0 1.5 1.2 2.7 2.6 2.7h10.6c1.5 0 2.7-1.2 2.7-2.7v-47.7c0-1.4-1.2-2.6-2.7-2.6h-10.6zm29.1 0a2.6 2.6 0 00-2.6 2.6V169c0 1.5 1.1 2.7 2.6 2.7h10.6c1.5 0 2.6-1.2 2.6-2.7v-47.7c0-1.4-1.1-2.6-2.6-2.6h-10.6zm29 0a2.6 2.6 0 00-2.6 2.6V169c0 1.5 1.2 2.7 2.7 2.7h10.6c1.4 0 2.6-1.2 2.6-2.7v-47.7c0-1.4-1.2-2.6-2.6-2.6h-10.6zm29.1 0a2.6 2.6 0 00-2.6 2.6V169c0 1.5 1.2 2.7 2.6 2.7H782c1.5 0 2.6-1.2 2.6-2.7v-47.7c0-1.4-1.1-2.6-2.6-2.6h-10.6zm29 0a2.6 2.6 0 00-2.6 2.6V169c0 1.5 1.2 2.7 2.7 2.7H811c1.4 0 2.6-1.2 2.6-2.7v-47.7c0-1.4-1.2-2.6-2.6-2.6h-10.6zM626 177.9a2.6 2.6 0 00-2.6 2.6v47.7c0 1.5 1.2 2.7 2.6 2.7h10.6c1.5 0 2.7-1.2 2.7-2.7v-47.7c0-1.4-1.2-2.6-2.7-2.6H626zm29 0a2.6 2.6 0 00-2.5 2.6v47.7c0 1.5 1.1 2.7 2.6 2.7h10.6c1.4 0 2.6-1.2 2.6-2.7v-47.7c0-1.4-1.2-2.6-2.6-2.6H655zm29.1 0a2.6 2.6 0 00-2.6 2.6v47.7c0 1.5 1.2 2.7 2.6 2.7h10.6c1.5 0 2.7-1.2 2.7-2.7v-47.7c0-1.4-1.2-2.6-2.7-2.6h-10.6zm29.1 0a2.6 2.6 0 00-2.6 2.6v47.7c0 1.5 1.1 2.7 2.6 2.7h10.6c1.5 0 2.6-1.2 2.6-2.7v-47.7c0-1.4-1.1-2.6-2.6-2.6h-10.6zm29 0a2.6 2.6 0 00-2.6 2.6v47.7c0 1.5 1.2 2.7 2.7 2.7h10.6c1.4 0 2.6-1.2 2.6-2.7v-47.7c0-1.4-1.2-2.6-2.6-2.6h-10.6zm29.1 0a2.6 2.6 0 00-2.6 2.6v47.7c0 1.5 1.2 2.7 2.6 2.7H782c1.5 0 2.6-1.2 2.6-2.7v-47.7c0-1.4-1.1-2.6-2.6-2.6h-10.6zm29 0a2.6 2.6 0 00-2.6 2.6v47.7c0 1.5 1.2 2.7 2.7 2.7H811c1.4 0 2.6-1.2 2.6-2.7v-47.7c0-1.4-1.2-2.6-2.6-2.6h-10.6z" fill="#E0E6ED" fill-rule="nonzero"/><path d="M844.2 98.9L851 111a2.6 2.6 0 01-2.3 3.9H588.7a2.6 2.6 0 01-2.2-4l7.5-12.1h250.2zM597 94.9l14.7-25a4 4 0 013.4-2h209.5a4 4 0 013.5 2.1L841.6 95H597z" fill="#E0E6ED" fill-rule="nonzero"/><g transform="translate(368 114)" fill-rule="nonzero"><path stroke="#AFBDCC" stroke-width="1.2" fill="#FBFBFB" d="M11 126.2h295.5v28.1H11z"/><path d="M202.4 37.3v18h104v-18h-104z" stroke="#8396A9" stroke-width="1.2" fill="#E0E6ED"/><g transform="translate(213 44.6)" fill="#CBD5E1"><rect x="10.6" width="8.4" height="12.8" rx=".4"/><rect width="8.4" height="12.8" rx=".4"/></g><g transform="translate(245.3 44.6)" fill="#CBD5E1"><rect x="10.6" width="8.4" height="12.8" rx=".4"/><rect width="8.4" height="12.8" rx=".4"/></g><g transform="translate(276.6 44.6)" fill="#CBD5E1"><rect x="10.6" width="8.4" height="12.8" rx=".4"/><rect width="8.4" height="12.8" rx=".4"/></g><path d="M11 54.7v90.5l295.4-.2V54.7H10.9z" stroke="#8396A9" stroke-width="1.2" fill="#E0E6ED"/><path d="M202.4 31.5v6h104.5l-13.3-6h-91.2zM29 31.5L11.4 54.7l138.7-.1V31.5H29z" stroke="#8396A9" stroke-width="1.2" fill="#BDC7D1"/><g transform="translate(149.3 35)" fill="#CBD5E1"><rect x="10.6" width="8.4" height="12.8" rx=".4"/><rect width="8.4" height="12.8" rx=".4"/></g><path stroke="#AFBDCC" stroke-width="1.2" fill="#FBFBFB" d="M11 117.1h295.5v28.1H11z"/><path stroke="#B6C2D0" stroke-width="1.2" d="M12.1 116.3V55.9h102.5"/><path d="M8.4 117h301M8.4 54.5h301M197.4 37.6h112M8.4 139.8h301" stroke="#8396A9" stroke-width="1.2" stroke-linecap="round"/><path d="M197.3.6h-21.1v6.2h-34.9V.6h-21v6.2h-2.5v18.7h-2.4v119.7l87-.3V25.5H200V6.8h-2.7V.6z" stroke="#8396A9" stroke-width="1.2" fill="#E0E6ED"/><g stroke="#76899F" stroke-width="1.2"><path d="M21.7 68.5v43.6h18.6V68.5C39.1 64 36 61.8 31 61.8c-5 0-8 2.2-9.3 6.7z" fill="#CBD5E1"/><path d="M21.8 74.9a16 16 0 009.2-2.2c2 1.4 5 2.2 9.3 2.2M21.8 86.9h18.5M21.8 100h18.5M31.1 62v49.6" stroke-linecap="square"/><g><path d="M53.6 68.5v43.6h18.6V68.5c-1.3-4.5-4.4-6.7-9.3-6.7-5 0-8 2.2-9.3 6.7z" fill="#CBD5E1"/><path d="M53.6 74.9a16 16 0 009.3-2.2c2 1.4 5 2.2 9.2 2.2M53.6 86.9h18.5M53.6 100h18.5M63 62v49.6" stroke-linecap="square"/></g><g><path d="M85.4 68.5v43.6H104V68.5c-1.3-4.5-4.3-6.7-9.3-6.7-5 0-8 2.2-9.3 6.7z" fill="#CBD5E1"/><path d="M85.4 74.9a16 16 0 009.3-2.2c2 1.4 5 2.2 9.2 2.2M85.4 86.9H104M85.4 100H104M94.7 62v49.6" stroke-linecap="square"/></g></g><g stroke="#76899F" stroke-width="1.2"><path d="M213.5 69v43.5h18.6V69c-1.3-4.4-4.3-6.6-9.3-6.6-5 0-8 2.2-9.3 6.6z" fill="#CBD5E1"/><path d="M213.6 75.3a16 16 0 009.2-2.2c2 1.5 5 2.2 9.3 2.2M213.6 87.3H232M213.6 100.5H232M222.9 62.4V112" stroke-linecap="square"/><g><path d="M245.3 69v43.5H264V69c-1.2-4.4-4.3-6.6-9.3-6.6-5 0-8 2.2-9.3 6.6z" fill="#CBD5E1"/><path d="M245.4 75.3a16 16 0 009.2-2.2c2 1.5 5 2.2 9.3 2.2M245.4 87.3h18.5M245.4 100.5h18.5M254.7 62.4V112" stroke-linecap="square"/></g><g><path d="M277.2 69v43.5h18.6V69c-1.3-4.4-4.4-6.6-9.3-6.6-5 0-8 2.2-9.3 6.6z" fill="#CBD5E1"/><path d="M277.2 75.3a16 16 0 009.3-2.2c2 1.5 5 2.2 9.2 2.2M277.2 87.3h18.5M277.2 100.5h18.5M286.5 62.4V112" stroke-linecap="square"/></g></g><g transform="translate(21.1 121.9)" fill="#CBD5E1"><rect width="8.4" height="12.8" rx=".4"/><rect x="10.9" width="8.4" height="12.8" rx=".4"/></g><g transform="translate(213 122.3)" fill="#CBD5E1"><rect width="8.4" height="12.8" rx=".4"/><rect x="10.9" width="8.4" height="12.8" rx=".4"/></g><g transform="translate(52.4 121.9)" fill="#CBD5E1"><rect width="8.4" height="12.8" rx=".4"/><rect x="10.9" width="8.4" height="12.8" rx=".4"/></g><g transform="translate(244.1 122.3)" fill="#CBD5E1"><rect width="8.4" height="12.8" rx=".4"/><rect x="10.9" width="8.4" height="12.8" rx=".4"/></g><g transform="translate(84.8 121.9)" fill="#CBD5E1"><rect width="8.4" height="12.8" rx=".4"/><rect x="10.9" width="8.4" height="12.8" rx=".4"/></g><g transform="translate(276.6 122.3)" fill="#CBD5E1"><rect width="8.4" height="12.8" rx=".4"/><rect x="10.9" width="8.4" height="12.8" rx=".4"/></g><path stroke="#AFBDCC" stroke-width="1.2" fill="#FBFBFB" d="M115.5 107.9h86.7v37.3h-86.7z"/><path d="M113.3 25.5H205M115.2 6.9h87" stroke="#8396A9" stroke-width="1.2" stroke-linecap="round"/><path d="M141.1 6.9v37.3h35.2V6.9h-12.8l-4.8-2.6-4.7 2.6H141z" stroke="#AFBDCC" stroke-width="1.2" fill="#FBFBFB"/><rect fill="#CBD5E1" x="154.6" y="11.4" width="8.4" height="12.8" rx=".4"/><path stroke="#AFBDCC" stroke-width="1.2" fill="#FBFBFB" d="M129.7 43.7h59.2v101.5h-59.2z"/><rect stroke="#AFBDCC" stroke-width="1.2" fill="#FBFBFB" x="129.7" y="38.6" width="14.3" height="106.7" rx=".4"/><path d="M142.2 38.8v-31h12.3c2.9-1.4 4.4-2.3 4.6-2.6" stroke="#DDE3EA" stroke-width="1.2"/><rect stroke="#AFBDCC" stroke-width="1.2" fill="#FBFBFB" x="174.6" y="38.6" width="14.3" height="106.7" rx=".4"/><path d="M127.7 38.6h19M172.2 38.6h19" stroke="#AFBDCC" stroke-width="1.2" stroke-linecap="round"/><g transform="translate(144.6 55.3)" fill="#CBD5E1"><rect x="21.1" width="8.4" height="12.8" rx=".4"/><rect x="10.6" width="8.4" height="12.8" rx=".4"/><rect width="8.4" height="12.8" rx=".4"/></g><g transform="translate(144.6 79.4)" fill="#CBD5E1"><rect x="21.1" width="8.4" height="12.8" rx=".4"/><rect x="10.6" width="8.4" height="12.8" rx=".4"/><rect width="8.4" height="12.8" rx=".4"/></g><rect stroke="#AFBDCC" stroke-width="1.2" fill="#FBFBFB" x="135.1" y="103.1" width="48.5" height="42.1" rx=".4"/><path d="M140 119.7v25.1h38.6v-25.1a29.7 29.7 0 00-19.3-8.4c-6.4 0-12.8 2.8-19.3 8.4z" stroke="#AFBDCC" stroke-width="1.2" fill="#AFBDCC"/><path stroke="#AFBDCC" stroke-width="1.2" fill="#FBFBFB" d="M132.5 145.4h53.7v3h-53.7zM130.5 148.4H188v3h-57.5zM128.6 151.4h61.5v3h-61.5z"/><path d="M0 154.2h318" stroke="#8396A9" stroke-width="1.2" stroke-linecap="round"/><path stroke="#B6C2D0" stroke-width="1.2" d="M116.6 107.3V26.6h23.9M203 38.5h102.6M203 55.9h102.6M119 25V8h21.6M176.9 8h22.3M176.9 26.6h24.9M121.4 6.3V1.8h19.4M176.9 1.8h19.9"/><path d="M12.2 141h102.1M12.2 118.3h102.1M203.4 141h102.1M203.4 118.3h102.1" stroke="#DDE3EA" stroke-width="1.2" stroke-linecap="square"/><path stroke="#DDE3EA" stroke-width="1.2" d="M116.6 144.6v-35.5H129M136.3 144.5v-40.2h46.8M130.9 144.7V39.8h12.4"/><path d="M175.9 39.9h11.8M190 109h11" stroke="#DDE3EA" stroke-width="1.2" stroke-linecap="square"/></g><g transform="translate(56 2)" fill-rule="nonzero"><path d="M91.6 66.4H10.4v27.1h-8v211.1h97.2v-211h-8V66.3zm-76 25V75.6h9.8v15.8h-9.8zm14 0V75.6h9.8v15.8h-9.8zm16 0V75.6h9.8v15.8h-9.8zm15 0V75.6h9.8v15.8h-9.8zm17 0V75.6h9.8v15.8h-9.8zm-62 29V91.6h9.8v28.8h-9.8zm14-7V91.6h9.8v21.8h-9.8zm16-6V91.6h9.8v15.8h-9.8zm15 6V91.6h9.8v21.8h-9.8zm17 7V91.6h9.8v28.8h-9.8zm-62 74.5v-27.3h9.8v27.3h-9.8zm14 0v-27.3h9.8v27.3h-9.8zm16 0v-27.3h9.8v27.3h-9.8zm15 0v-27.3h9.8v27.3h-9.8zm17 0v-27.3h9.8v27.3h-9.8zm-62 109.9V194.6h9.8v110.2h-9.8zm14 0V194.6h9.8v110.2h-9.8zm16 0V194.6h9.8v110.2h-9.8zm15 0V194.6h9.8v110.2h-9.8zm17 0V194.6h9.8v110.2h-9.8zM51 159.3a21.6 21.6 0 110-43.1 21.6 21.6 0 010 43.1z" stroke="#E0E6ED" stroke-width="4.8" fill="#E0E6ED"/><path d="M29.5 40.8V64M43 40.8V64M57.4 40.8V64M72.5 40.8V64" stroke="#E0E6ED" stroke-width="4.8" stroke-linecap="square"/><rect stroke="#E0E6ED" stroke-width="4.8" x="16.7" y="39.2" width="68.5" height="27.2" rx="1.6"/><path d="M51.7 14l39.9 21.4a1.6 1.6 0 01-.8 3H8a1.6 1.6 0 01-.8-3l40-21.4c1.4-.8 3-.8 4.5 0z" fill="#E0E6ED"/><path d="M49.4 10.4V0" stroke="#E0E6ED" stroke-width="3.2" stroke-linecap="square"/><path d="M65.9 135c-1-6.3-5.8-11.3-12-12.7V135h12z" fill="#E0E6ED"/><path d="M51.5 153c8.1 0 14.7-6.2 15.5-14H50v-17a15.5 15.5 0 001.5 31z" fill="#E0E6ED"/></g><g transform="translate(109 135)" fill-rule="nonzero"><path stroke="#AFBDCC" stroke-width="1.2" fill="#FBFBFB" d="M2.7 124.2h206v9.2H2.7z"/><path stroke="#979797" stroke-width=".5" fill="#8396A9" d="M66 88.2h81.5v36.2H66z"/><path d="M143.5 123.6h63.8v-112H4.7v112.1h64.7V90.5h20v33.1h7.1v-33h20v33h7v-33h20v33z" stroke="#8396A9" stroke-width="1.2" fill="#E0E6ED"/><path d="M69.5 89.3V75M96.5 89.4V75M116.5 89.4V75M123.6 89.4V75M143.5 89.4V75M89.5 89.4V75M42.4 118.1V75M62.4 118.1V75M15.4 118.1V75M35.4 118.1V75M177.7 118.1V75M197.7 118.1V75M150.6 118.1V75M170.6 118.1V75" stroke="#A2AFBE" stroke-width="1.2" stroke-linecap="square"/><rect stroke="#FBFBFB" stroke-width="1.2" fill="#FBFBFB" x="101.8" y="82.5" width="9.4" height="4.2" rx=".4"/><circle stroke="#FBFBFB" stroke-width="1.2" fill="#FBFBFB" cx="133.4" cy="84.6" r="2.1"/><circle stroke="#FBFBFB" stroke-width="1.2" fill="#FBFBFB" cx="25.3" cy="84.6" r="2.1"/><circle stroke="#FBFBFB" stroke-width="1.2" fill="#FBFBFB" cx="160.6" cy="84.6" r="2.1"/><circle stroke="#FBFBFB" stroke-width="1.2" fill="#FBFBFB" cx="52.5" cy="84.6" r="2.1"/><circle stroke="#FBFBFB" stroke-width="1.2" fill="#FBFBFB" cx="187.6" cy="84.6" r="2.1"/><circle stroke="#FBFBFB" stroke-width="1.2" fill="#FBFBFB" cx="79.5" cy="84.6" r="2.1"/><g transform="translate(14.7 33.7)" stroke-width="1.2"><rect stroke="#76899F" fill="#CBD5E1" x=".6" y=".6" width="20" height="44.3" rx=".6"/><path stroke="#A2AFBE" d="M1.7 44.3V1.8H20"/><path d="M.6 32.6h20M.6 19.7h20M.6 7.1h20M7.1.6v44.1M13.8.8v44" stroke="#76899F" stroke-linecap="square"/></g><g transform="translate(41.8 33.7)" stroke-width="1.2"><rect stroke="#76899F" fill="#CBD5E1" x=".6" y=".6" width="20" height="44.3" rx=".6"/><path stroke="#A2AFBE" d="M1.7 44.3V1.8H20"/><path d="M.6 32.6h20M.6 19.7h20M.6 7.1h20M7.1.6v44.1M13.8.8v44" stroke="#76899F" stroke-linecap="square"/></g><g transform="translate(68.8 33.7)" stroke-width="1.2"><rect stroke="#76899F" fill="#CBD5E1" x=".6" y=".6" width="20" height="44.3" rx=".6"/><path stroke="#A2AFBE" d="M1.7 44.3V1.8H20"/><path d="M.6 32.6h20M.6 19.7h20M.6 7.1h20M7.1.6v44.1M13.8.8v44" stroke="#76899F" stroke-linecap="square"/></g><g transform="translate(95.9 33.7)" stroke-width="1.2"><rect stroke="#76899F" fill="#CBD5E1" x=".6" y=".6" width="20" height="44.3" rx=".6"/><path stroke="#A2AFBE" d="M1.7 44.3V1.8H20"/><path d="M.6 32.6h20M.6 19.7h20M.6 7.1h20M7.1.6v44.1M13.8.8v44" stroke="#76899F" stroke-linecap="square"/></g><g transform="translate(123 33.7)" stroke-width="1.2"><rect stroke="#76899F" fill="#CBD5E1" x=".6" y=".6" width="20" height="44.3" rx=".6"/><path stroke="#A2AFBE" d="M1.7 44.3V1.8H20"/><path d="M.6 32.6h20M.6 19.7h20M.6 7.1h20M7.1.6v44.1M13.8.8v44" stroke="#76899F" stroke-linecap="square"/></g><g transform="translate(150 33.7)" stroke-width="1.2"><rect stroke="#76899F" fill="#CBD5E1" x=".6" y=".6" width="20" height="44.3" rx=".6"/><path stroke="#A2AFBE" d="M1.7 44.3V1.8H20"/><path d="M.6 32.6h20M.6 19.7h20M.6 7.1h20M7.1.6v44.1M13.8.8v44" stroke="#76899F" stroke-linecap="square"/></g><g transform="translate(177 33.7)" stroke-width="1.2"><rect stroke="#76899F" fill="#CBD5E1" x=".6" y=".6" width="20" height="44.3" rx=".6"/><path stroke="#A2AFBE" d="M1.7 44.3V1.8H20"/><path d="M.6 32.6h20M.6 19.7h20M.6 7.1h20M7.1.6v44.1M13.8.8v44" stroke="#76899F" stroke-linecap="square"/></g><g transform="translate(14.7 91.1)" stroke-width="1.2"><rect stroke="#76899F" fill="#CBD5E1" x=".6" y=".6" width="20" height="21.2" rx=".6"/><path stroke="#A2AFBE" d="M1.7 21.2V1.8H20"/><path d="M.6 7.5h20M7.1.7v20.9M13.8.6v21" stroke="#76899F" stroke-linecap="square"/></g><g transform="translate(150 91.1)" stroke-width="1.2"><rect stroke="#76899F" fill="#CBD5E1" x=".6" y=".6" width="20" height="21.2" rx=".6"/><path stroke="#A2AFBE" d="M1.7 21.2V1.8H20"/><path d="M.6 7.5h20M7.1.7v20.9M13.8.6v21" stroke="#76899F" stroke-linecap="square"/></g><g transform="translate(41.8 91.1)" stroke-width="1.2"><rect stroke="#76899F" fill="#CBD5E1" x=".6" y=".6" width="20" height="21.2" rx=".6"/><path stroke="#A2AFBE" d="M1.7 21.2V1.8H20"/><path d="M.6 7.5h20M7.1.7v20.9M13.8.6v21" stroke="#76899F" stroke-linecap="square"/></g><g transform="translate(177 91.1)" stroke-width="1.2"><rect stroke="#76899F" fill="#CBD5E1" x=".6" y=".6" width="20" height="21.2" rx=".6"/><path stroke="#A2AFBE" d="M1.7 21.2V1.8H20"/><path d="M.6 7.5h20M7.1.7v20.9M13.8.6v21" stroke="#76899F" stroke-linecap="square"/></g><rect stroke="#AFBDCC" stroke-width="1.2" fill="#FBFBFB" x="88.9" y="118.7" width="8.2" height="5.3" rx=".2"/><rect stroke="#AFBDCC" stroke-width="1.2" fill="#FBFBFB" x="116" y="118.7" width="8.2" height="5.3" rx=".2"/><rect stroke="#AFBDCC" stroke-width="1.2" fill="#FBFBFB" x="2.7" y="118.7" width="68.1" height="5.3" rx=".2"/><rect stroke="#AFBDCC" stroke-width="1.2" fill="#FBFBFB" x="60" y="124.2" width="94.7" height="3.1" rx=".2"/><rect stroke="#AFBDCC" stroke-width="1.2" fill="#FBFBFB" x="57.9" y="127.3" width="99.4" height="3.1" rx=".2"/><rect stroke="#AFBDCC" stroke-width="1.2" fill="#FBFBFB" x="55.3" y="130.3" width="104.6" height="3.1" rx=".2"/><rect stroke="#AFBDCC" stroke-width="1.2" fill="#FBFBFB" x="14" y="76.6" width="22.7" height="2.1" rx="1.1"/><rect stroke="#AFBDCC" stroke-width="1.2" fill="#FBFBFB" x="14" y="111.3" width="22.7" height="2.1" rx="1.1"/><rect stroke="#AFBDCC" stroke-width="1.2" fill="#FBFBFB" x="41.2" y="76.6" width="22.7" height="2.1" rx="1.1"/><rect stroke="#AFBDCC" stroke-width="1.2" fill="#FBFBFB" x="41.2" y="111.3" width="22.7" height="2.1" rx="1.1"/><rect stroke="#AFBDCC" stroke-width="1.2" fill="#FBFBFB" x="68.2" y="76.6" width="22.7" height="2.1" rx="1.1"/><rect stroke="#AFBDCC" stroke-width="1.2" fill="#FBFBFB" x="95.2" y="76.6" width="22.7" height="2.1" rx="1.1"/><rect stroke="#AFBDCC" stroke-width="1.2" fill="#FBFBFB" x="122.2" y="76.6" width="22.7" height="2.1" rx="1.1"/><rect stroke="#AFBDCC" stroke-width="1.2" fill="#FBFBFB" x="149.3" y="76.6" width="22.7" height="2.1" rx="1.1"/><rect stroke="#AFBDCC" stroke-width="1.2" fill="#FBFBFB" x="149.3" y="111.3" width="22.7" height="2.1" rx="1.1"/><rect stroke="#AFBDCC" stroke-width="1.2" fill="#FBFBFB" x="176.2" y="76.6" width="22.7" height="2.1" rx="1.1"/><rect stroke="#AFBDCC" stroke-width="1.2" fill="#FBFBFB" x="176.2" y="111.3" width="22.7" height="2.1" rx="1.1"/><rect stroke="#AFBDCC" stroke-width="1.2" fill="#FBFBFB" x="142.6" y="118.8" width="66.1" height="5.3" rx=".2"/><path d="M37.2.6L3.9 11.7h205L177.2.6h-140z" stroke="#8396A9" stroke-width="1.2" fill="#BDC7D1"/><path fill="#CBD5E1" d="M5.3 23.2h201.3v7.2H5.3z"/><path d="M2.5 11.8h207.6M2.5 19h207.6M0 133.5h212" stroke="#8396A9" stroke-width="1.2" stroke-linecap="round"/></g><g transform="translate(717 134)" fill-rule="nonzero"><path d="M4 11.8h210" stroke="#8396A9" stroke-width="1.2" stroke-linecap="round"/><path d="M5.8 11.9v113.7l206.4-.3V12H5.8z" stroke="#8396A9" stroke-width="1.2" fill="#E0E6ED"/><path d="M7 13.1h204" stroke="#B6C2D0" stroke-width="1.2" stroke-linecap="square"/><path fill="#8396A9" d="M22.8 42.4h168.7v83.1H22.8z"/><g stroke="#AFBDCC" stroke-width="1.2"><path d="M43.8 46v-3H29.6v3h1.7v76.2h-1.7v3h14.2v-3h-1.7V46h1.7z" fill="#FBFBFB"/><path d="M34.7 46v76M38.2 46v76" stroke-linecap="round"/><path d="M64 46v-3H49.7v3h1.7v76.2h-1.7v3h14.1v-3h-1.6V46h1.6z" fill="#FBFBFB"/><path d="M54.9 46v76M58.4 46v76" stroke-linecap="round"/><path d="M84 46v-3H70v3h1.6v76.2h-1.7v3h14.2v-3h-1.7V46h1.7z" fill="#FBFBFB"/><path d="M75 46v76M78.5 46v76" stroke-linecap="round"/><g><path d="M104.2 46v-3H90.1v3h1.6v76.2h-1.6v3h14.1v-3h-1.7V46h1.7z" fill="#FBFBFB"/><path d="M95.2 46v76M98.6 46v76" stroke-linecap="round"/></g><g><path d="M124.4 46v-3h-14.2v3h1.7v76.2h-1.7v3h14.2v-3h-1.7V46h1.7z" fill="#FBFBFB"/><path d="M115.3 46v76M118.8 46v76" stroke-linecap="round"/></g><g><path d="M144.5 46v-3h-14.2v3h1.7v76.2h-1.7v3h14.2v-3h-1.7V46h1.7z" fill="#FBFBFB"/><path d="M135.4 46v76M139 46v76" stroke-linecap="round"/></g><g><path d="M164.6 46v-3h-14.1v3h1.7v76.2h-1.7v3h14.1v-3H163V46h1.6z" fill="#FBFBFB"/><path d="M155.6 46v76M159 46v76" stroke-linecap="round"/></g><g><path d="M184.8 46v-3h-14.2v3h1.7v76.2h-1.7v3h14.2v-3H183V46h1.7z" fill="#FBFBFB"/><path d="M175.7 46v76M179.2 46v76" stroke-linecap="round"/></g></g><path fill="#CBD5E1" d="M6.4 31.1h205.1v7.4H6.4z"/><g transform="translate(0 26.1)"><rect fill="#E0E6ED" x="1" width="215.5" height="3.7" rx="1.9"/><path fill="#B6C2D0" d="M.5 2.2H217l-1.9 2.1H2.4z"/><rect stroke="#8396A9" stroke-width="1.2" x=".4" y="-.6" width="216.7" height="4.9" rx="2.5"/></g><g transform="translate(7 .5)"><rect fill="#E0E6ED" x="1" width="202" height="4" rx="2"/><path fill="#B6C2D0" d="M0 2h203.6l-1.2 2H1.8z"/><rect stroke="#8396A9" stroke-width="1.2" x=".4" y="-.6" width="203.2" height="5.2" rx="2.6"/></g><path stroke="#8396A9" stroke-width="1.2" fill="#E0E6ED" d="M11.1 5.3H207v6.5H11.1z"/><path stroke="#AFBDCC" stroke-width="1.2" fill="#FBFBFB" d="M3.8 125.1h209.9v9.3H3.8z"/><path stroke="#AFBDCC" stroke-width="1.2" fill="#FBFBFB" d="M29.3 125.1h155.5v3.1H29.3z"/><path stroke="#AFBDCC" stroke-width="1.2" fill="#FBFBFB" d="M27.3 128.1h159.5v3.1H27.3z"/><path stroke="#AFBDCC" stroke-width="1.2" fill="#FBFBFB" d="M25.6 131.1h162.9v3.1H25.6z"/><path d="M1 134.5h216" stroke="#8396A9" stroke-width="1.2" stroke-linecap="round"/><path d="M43.4 47v73.7M45 43v3M63.5 47v73.7M65 43v3M83.8 47v73.7M85.3 43v3M103.8 47v73.7M105.3 43v3M124 47v73.7M125.5 43v3M144 47v73.7M145.5 43v3M164.3 47v73.7M165.9 43v3M184.3 47v73.7M185.9 43v3" stroke="#66798C" stroke-width="1.2" stroke-linecap="square"/><circle stroke="#FBFBFB" stroke-width="1.2" fill="#FBFBFB" cx="13.9" cy="19.1" r="2.8"/><circle stroke="#FBFBFB" stroke-width="1.2" fill="#FBFBFB" cx="180.1" cy="19.1" r="2.8"/><circle stroke="#FBFBFB" stroke-width="1.2" fill="#FBFBFB" cx="36.7" cy="19.1" r="2.8"/><circle stroke="#FBFBFB" stroke-width="1.2" fill="#FBFBFB" cx="202.9" cy="19.1" r="2.8"/><g fill="#FBFBFB" stroke="#FBFBFB" stroke-width="1.2"><path d="M63.5 17h91v1h-91zM59.3 20.5h99.5v1H59.3z"/></g></g><path d="M0 310h1053v-50.9C773.8 292.2 584.8 236 381.7 236 256.4 236 129 243.7 0 259.1V310z" fill="#00274C" fill-rule="nonzero"/></g></svg>