<?xml version="1.0" encoding="utf-8"?>
<!-- Generator: Adobe Illustrator 22.0.0, SVG Export Plug-In . SVG Version: 6.00 Build 0)  -->
<svg version="1.1" id="Layer_1" xmlns="http://www.w3.org/2000/svg" xmlns:xlink="http://www.w3.org/1999/xlink" x="0px" y="0px"
	 viewBox="0 0 659.9 375.4" style="enable-background:new 0 0 659.9 375.4;" xml:space="preserve">
<style type="text/css">
	.st0{fill:#BACFF2;}
	.st1{opacity:0.6;fill:none;stroke:#6B87BA;stroke-width:7.9084;stroke-miterlimit:10;enable-background:new    ;}
	.st2{fill:#6B87BA;}
	.st3{fill:#DCE6F8;}
	.st4{fill:#6EA3E4;}
	.st5{fill:none;stroke:#BACFF2;stroke-width:7.9084;stroke-miterlimit:10;}
	.st6{opacity:0.1;fill:#1E4870;enable-background:new    ;}
	.st7{fill:#3A8DDE;}
	.st8{fill:#FFFFFF;}
	.st9{opacity:0.6;fill:#6B87BA;enable-background:new    ;}
	.st10{fill:#FD495C;}
	.st11{fill:#F4B223;}
	.st12{fill:#A67EB1;}
	.st13{fill:#18988B;}
	.st14{opacity:0.6;fill:#BACFF2;enable-background:new    ;}
	.st15{opacity:0.6;fill:#96B9EB;enable-background:new    ;}
	.st16{opacity:0.3;fill:#6B87BA;enable-background:new    ;}
	.st17{clip-path:url(#SVGID_2_);}
	.st18{fill:#C7D8F4;}
	.st19{clip-path:url(#SVGID_4_);}
	.st20{fill:#DCE6F6;}
	.st21{fill:#98B8E2;}
	.st22{opacity:0.7;fill:#8EB4EA;enable-background:new    ;}
	.st23{opacity:0.3;fill:#DCE6F8;enable-background:new    ;}
	.st24{fill:#899DC7;}
	.st25{clip-path:url(#SVGID_6_);}
	.st26{fill:#96B9EB;}
	.st27{fill:#FFBCBA;}
	.st28{fill:#003A5D;}
	.st29{clip-path:url(#SVGID_8_);fill:#B4C0DC;}
	.st30{clip-path:url(#SVGID_10_);fill:#003A5D;}
	.st31{clip-path:url(#SVGID_12_);fill:#003A5D;}
	.st32{clip-path:url(#SVGID_14_);}
	.st33{opacity:0.5;fill:#DCE6F8;enable-background:new    ;}
	.st34{fill:#90A3CB;}
	.st35{fill:#32507F;}
	.st36{fill:#C3CCE2;}
	.st37{clip-path:url(#SVGID_16_);}
	.st38{fill:none;stroke:#223654;stroke-width:1.9845;stroke-miterlimit:10;}
	.st39{fill:#223654;}
</style>
<path class="st0" d="M549.5,375.4h91.8c2.2,0,4-1.8,4-4v-51.7c0-2.2-1.8-4-4-4h-91.8c-2.2,0-4,1.8-4,4v51.7
	C545.5,373.6,547.3,375.4,549.5,375.4z"/>
<path class="st0" d="M483.8,343.7H103.2c-4.9,0-8.8-3.9-8.8-8.8V84c0-4.5,3.6-8.1,8.1-8.1h381.9c4.5,0,8.1,3.6,8.1,8.1v250.8
	C492.6,339.7,488.7,343.7,483.8,343.7z"/>
<line class="st1" x1="246.5" y1="114.6" x2="367.1" y2="114.6"/>
<g>
	<path class="st2" d="M268.3,170.8h-18.4c-1.9,0-3.5-1.6-3.5-3.5v-18.4c0-1.9,1.6-3.5,3.5-3.5h18.4c1.9,0,3.5,1.6,3.5,3.5v18.4
		C271.8,169.2,270.2,170.8,268.3,170.8z"/>
	<line class="st1" x1="300.2" y1="149.6" x2="367" y2="149.6"/>
	<line class="st1" x1="300.2" y1="166.5" x2="450.9" y2="166.5"/>
</g>
<path class="st3" d="M470.2,260.6h-238c-2.9,0-5.3-2.4-5.3-5.3v-55.8c0-2.9,2.4-5.3,5.3-5.3h238c2.9,0,5.3,2.4,5.3,5.3v55.8
	C475.5,258.3,473.1,260.6,470.2,260.6z"/>
<g>
	<path class="st4" d="M268.3,240.2h-18.4c-1.9,0-3.5-1.6-3.5-3.5v-18.4c0-1.9,1.6-3.5,3.5-3.5h18.4c1.9,0,3.5,1.6,3.5,3.5v18.3
		C271.8,238.6,270.2,240.2,268.3,240.2z"/>
	<line class="st5" x1="300.2" y1="219" x2="367" y2="219"/>
	<line class="st5" x1="300.2" y1="235.9" x2="450.9" y2="235.9"/>
</g>
<rect x="142.3" y="75.9" class="st6" width="67.9" height="267.8"/>
<path class="st3" d="M492.6,95H142.3V75.9h342.2c4.5,0,8.1,3.6,8.1,8.1L492.6,95L492.6,95z"/>
<g>
	<path class="st7" d="M142.3,343.7h-39c-4.9,0-8.8-3.9-8.8-8.8V84c0-4.5,3.6-8.1,8.1-8.1h39.7V343.7z"/>
	<g>
		<path class="st8" d="M121.3,109.4c0.1,0.1,0.1,0.2,0.1,0.3c0,0.1,0,1.9-1.6,2.6c-0.4,0.2-1,0.3-1.5,0.3l-1.3,1.6
			c0.7,0,1.7,0,2.1,0c0.7-0.1,1.3-0.3,1.9-0.7c0.4-0.2,0.8-0.6,1.1-0.9c0.4-0.4,0.7-0.9,0.9-1.3c0.1-0.2,0.1-0.4,0.2-0.7
			c0.1-0.6,0.2-1.6,0.2-2.5h-3.3L121.3,109.4L121.3,109.4z"/>
		<path class="st8" d="M121.1,106l-0.7,1.3h4.9c1.6,0,2.4-0.6,3-1.3H121.1L121.1,106z"/>
		<path class="st8" d="M120.6,101.6l-2.6-1.2C118.9,98.6,121.2,99.7,120.6,101.6L120.6,101.6z M116,104.5c0.2,0,0.4,0.1,0.4,0.4
			c0,0.1,0.2,2.4,2.4,2.4h0.3l1.3-2.3h3v-6.9c0-2.2-1.1-3.3-1.1-3.3l0,0c-0.5-0.7-1.2-1.1-2.1-1.4c-0.7-0.2-1.3-0.2-2-0.2h-3.5
			c0.4,0.4,0.7,1.1,0.7,1.8c0,0.2-0.2,0.4-0.4,0.4s-0.4-0.2-0.4-0.4c0-0.6-0.2-1-0.5-1.3c-0.6-0.6-1.6-0.5-1.6-0.5l0,0h-3.4
			c0,0-0.3,0-0.4,0.1c-0.1,0.1-0.2,0.3-0.2,0.6v8.8c0,0-0.1,1.9,1.2,3.2c0,0,1.5,1.5,3.2,1.5h3.8c-0.7-0.7-1-1.7-1.1-2.4
			C115.6,104.7,115.7,104.5,116,104.5L116,104.5z"/>
	</g>
</g>
<rect x="142.3" y="95" class="st9" width="67.9" height="28.3"/>
<rect x="142.3" y="145.3" class="st9" width="67.9" height="28.3"/>
<g>
	<path class="st8" d="M447.1,314.8H139.9c-9.7,0-17.5-7.8-17.5-17.5l0,0c0-9.7,7.8-17.5,17.5-17.5h307.2c9.7,0,17.5,7.8,17.5,17.5
		l0,0C464.6,306.9,456.8,314.8,447.1,314.8z"/>
	<g>
		<g>
			<circle class="st10" cx="300.1" cy="297.3" r="10.7"/>
			<path class="st8" d="M304.7,293.8h-9.2c-0.3,0-0.6,0.3-0.6,0.6v5.7c0,0.3,0.3,0.6,0.6,0.6h9.2c0.3,0,0.6-0.3,0.6-0.6v-5.7
				C305.3,294.1,305,293.8,304.7,293.8z M304,294.7l-3.9,3l-3.9-3H304z M304.4,299.8h-8.5v-4.1l3.9,3.1c0.2,0.1,0.4,0.1,0.6,0
				l3.9-3.1L304.4,299.8L304.4,299.8z"/>
		</g>
		<g>
			<circle class="st11" cx="333.1" cy="297.3" r="10.7"/>
			<g>
				<path class="st8" d="M333.1,297.7c1.3,0,2.4-1.1,2.4-2.4s-1.1-2.4-2.4-2.4s-2.4,1.1-2.4,2.4S331.8,297.7,333.1,297.7z"/>
				<path class="st8" d="M328.9,301.7h8.4c0.1,0,0.2-0.1,0.2-0.3c-0.4-1.5-1.4-2.7-2.9-3.2c-0.1,0-0.1,0-0.2,0
					c-0.4,0.2-0.9,0.3-1.4,0.3s-1-0.1-1.4-0.3c-0.1,0-0.1,0-0.2,0c-1.4,0.5-2.5,1.7-2.9,3.2C328.7,301.5,328.8,301.7,328.9,301.7z"
					/>
			</g>
		</g>
		<g>
			<path class="st2" d="M159.1,296.6c-0.9-2.3-3.4-3.4-7.5-3.4h-1.9V291c0-0.1-0.1-0.3-0.2-0.4c-0.1-0.1-0.2-0.2-0.4-0.2
				s-0.3,0.1-0.4,0.2l-4.4,4.4c-0.1,0.1-0.2,0.2-0.2,0.4c0,0.1,0.1,0.3,0.2,0.4l4.4,4.4c0.1,0.1,0.2,0.2,0.4,0.2s0.3-0.1,0.4-0.2
				c0.1-0.1,0.2-0.2,0.2-0.4v-2.2h1.9c0.6,0,1.1,0,1.5,0.1c0.4,0,0.9,0.1,1.3,0.2c0.4,0.1,0.8,0.2,1.1,0.4s0.6,0.4,0.9,0.6
				c0.3,0.2,0.5,0.5,0.7,0.9c0.2,0.3,0.3,0.7,0.4,1.2c0.1,0.5,0.1,1,0.1,1.5c0,0.3,0,0.7,0,1c0,0,0,0.1,0,0.2c0,0.1,0,0.2,0,0.2
				c0,0.1,0,0.2,0.1,0.2c0,0.1,0.1,0.1,0.2,0.1c0.1,0,0.2,0,0.2-0.1s0.1-0.1,0.1-0.2c0-0.1,0.1-0.2,0.1-0.3s0.1-0.2,0.1-0.2
				c0.7-1.6,1.1-2.9,1.1-3.8C159.6,298.3,159.4,297.4,159.1,296.6L159.1,296.6z"/>
		</g>
		<g>
			<path class="st2" d="M183.7,295.1c-1.1-1.1-2.8-1.7-5.1-1.9V291c0-0.2-0.1-0.4-0.3-0.5s-0.4-0.1-0.6,0.1l-4.4,4.4
				c-0.1,0.1-0.2,0.2-0.2,0.4c0,0.1,0.1,0.3,0.2,0.4l4.4,4.4c0.1,0.1,0.2,0.2,0.4,0.2c0.1,0,0.1,0,0.2,0c0.2-0.1,0.3-0.3,0.3-0.5
				v-2.3c0.9,0.1,1.7,0.2,2.3,0.4s1.1,0.5,1.5,0.9c0.8,0.9,1.1,2.5,0.9,4.8c0,0.1,0.1,0.2,0.2,0.3c0,0,0,0,0.1,0s0.2,0,0.2-0.1
				l0.2-0.3c0.1-0.2,0.2-0.4,0.3-0.8c0.2-0.4,0.3-0.7,0.4-1.1c0.1-0.4,0.2-0.7,0.3-1.2c0.1-0.4,0.1-0.8,0.1-1.1
				C185.1,297.5,184.7,296.1,183.7,295.1L183.7,295.1z"/>
			<path class="st2" d="M171.8,295.3c0-0.1,0.1-0.3,0.2-0.4l3.4-3.4v-0.6c0-0.2-0.1-0.4-0.3-0.5s-0.4-0.1-0.6,0.1l-4.4,4.4
				c-0.1,0.1-0.2,0.2-0.2,0.4c0,0.1,0.1,0.3,0.2,0.4l4.4,4.4c0.1,0.1,0.2,0.2,0.4,0.2c0.1,0,0.1,0,0.2,0c0.2-0.1,0.3-0.3,0.3-0.5
				v-0.6l-3.4-3.4C171.8,295.6,171.8,295.5,171.8,295.3L171.8,295.3z"/>
		</g>
		<path class="st2" d="M209.5,296.7l-4.4-4.2c-0.2-0.2-0.6-0.1-0.6,0.3v2.3H196c-0.2,0-0.4,0.2-0.4,0.4v3.6c0,0.2,0.2,0.4,0.4,0.4
			h8.5v2.3c0,0.3,0.4,0.5,0.6,0.3l4.4-4.2C209.8,297.5,209.8,297,209.5,296.7z"/>
		<g>
			<circle class="st7" cx="366.1" cy="297.3" r="10.7"/>
			<g>
				<path class="st8" d="M370.9,292.6c-0.4-0.4-1.2-0.4-1.6,0l-4,4l0,0l0,0l0,0l-0.7,2c0,0.1,0,0.2,0.1,0.3h0.1l2-0.7l0,0l0,0l0,0
					l3.6-3.6l0.3-0.3C371.4,293.8,371.4,293.1,370.9,292.6z"/>
				<path class="st8" d="M369.1,302.2h-6.2c-0.7,0-1.2-0.6-1.2-1.2v-6.2c0-0.7,0.6-1.2,1.2-1.2h3.1c0.3,0,0.5,0.2,0.5,0.5
					s-0.2,0.5-0.5,0.5h-3.1c-0.1,0-0.2,0.1-0.2,0.2v6.2c0,0.1,0.1,0.2,0.2,0.2h6.2c0.1,0,0.2-0.1,0.2-0.2v-3.5
					c0-0.3,0.2-0.5,0.5-0.5s0.5,0.2,0.5,0.5v3.5C370.4,301.6,369.8,302.2,369.1,302.2z"/>
			</g>
		</g>
		<g>
			<circle class="st12" cx="432.1" cy="297.3" r="10.7"/>
			<path class="st8" d="M435.9,292.6h-7.6c-0.6,0-1.1,0.5-1.1,1.1v8c0,0.1,0.1,0.2,0.2,0.3h0.3c0.1,0,0.2,0,0.2-0.1l2.4-2.3h5.6
				c0.6,0,1.1-0.6,1.1-1.2v-4.7C437,293.1,436.5,292.6,435.9,292.6z"/>
		</g>
		<g>
			
				<ellipse transform="matrix(0.1602 -0.9871 0.9871 0.1602 41.7099 643.6242)" class="st13" cx="399.1" cy="297.3" rx="10.7" ry="10.7"/>
			<path class="st8" d="M400.8,291.7h-0.2h-3h-0.4c0,0-1,0-1,1v9.1c0,1,1,1,1,1h3.5c0,0,1,0,1-1v-9.1
				C401.9,291.7,400.8,291.7,400.8,291.7z M399.1,302.4c-0.3,0-0.5-0.2-0.5-0.5s0.2-0.5,0.5-0.5s0.5,0.2,0.5,0.5
				S399.3,302.4,399.1,302.4z M397,301v-8.1h0.7h3h0.4v8.1H397z"/>
		</g>
	</g>
</g>
<circle class="st14" cx="476.3" cy="48.3" r="6.1"/>
<circle class="st14" cx="645.3" cy="280.4" r="5"/>
<circle class="st15" cx="500.8" cy="26.9" r="4.6"/>
<circle class="st3" cx="15.6" cy="71.4" r="4.6"/>
<path class="st14" d="M644.4,181h-38.2c-3.3,0-6,2.7-6,6v20.3c0,3.3,2.7,6,6,6h34.5l9.8,6.1v-12.1v-3.7v-16.5
	C650.5,183.7,647.8,181,644.4,181z"/>
<path class="st16" d="M605.4,226.4H622c1.4,0,2.6,1.2,2.6,2.6v8.8c0,1.4-1.2,2.6-2.6,2.6h-15l-4.2,2.6v-5.3V236v-7.2
	C602.7,227.5,603.9,226.4,605.4,226.4z"/>
<g>
	<g>
		<circle class="st8" cx="649.5" cy="181.4" r="10.3"/>
		<path class="st11" d="M653.2,176.9h-7.4c-0.6,0-1.1,0.5-1.1,1.1v7.7c0,0.1,0.1,0.2,0.2,0.3h0.3c0.1,0,0.1,0,0.2-0.1l2.3-2.3h5.4
			c0.6,0,1.1-0.5,1.1-1.1V178C654.2,177.4,653.7,176.9,653.2,176.9z"/>
	</g>
	<g>
		<circle class="st12" cx="649.5" cy="181.4" r="10.3"/>
		<path class="st8" d="M652.8,177.4h-6.6c-0.5,0-1,0.4-1,1v6.9c0,0.1,0.1,0.2,0.2,0.2h0.3c0.1,0,0.1,0,0.2-0.1l2.1-2h4.8
			c0.5,0,1-0.5,1-1v-4.1C653.7,177.8,653.3,177.4,652.8,177.4z"/>
	</g>
</g>
<circle class="st3" cx="186.1" cy="6.9" r="6.9"/>
<circle class="st15" cx="168.1" cy="25" r="3.3"/>
<g>
	<g>
		<defs>
			<path id="SVGID_1_" d="M49.1,20.2H21.3c-1.1,0-2-0.9-2-2V2.1c0-1.1,0.9-2,2-2h27.8c1.1,0,2,0.9,2,2v16.1
				C51.1,19.3,50.2,20.2,49.1,20.2z"/>
		</defs>
		<clipPath id="SVGID_2_">
			<use xlink:href="#SVGID_1_"  style="overflow:visible;"/>
		</clipPath>
		<g class="st17">
			<path class="st0" d="M20.1,0.7L20.1,0.7l-0.7-0.4v2.1v15.7l0,0c0,0.2,0,0.4,0.1,0.6c0.1,0.3,0.3,0.6,0.5,0.9l0,0
				c0.1,0.1,0.3,0.3,0.4,0.3c0.3,0.2,0.6,0.3,0.9,0.3h28c0.4,0,0.8-0.2,1.2-0.4L20.1,0.7z"/>
			<path class="st0" d="M50.4,0.7L50.4,0.7l-30.3,19c0.3,0.3,0.7,0.4,1.2,0.4h28c0.3,0,0.6-0.1,0.9-0.3c0.4-0.3,0.7-0.7,0.9-1.2
				c0.1-0.2,0.1-0.4,0.1-0.6l0,0V2.3V0.2L50.4,0.7z"/>
			<path class="st3" d="M34.1,6.8l-14,11.6c-0.5,0.4-0.8,1-0.8,1.7H51c0-0.7-0.3-1.3-0.8-1.7l-14-11.6C35.7,6.3,34.8,6.3,34.1,6.8z"
				/>
			<path class="st18" d="M19.3,0.1c0,0.7,0.3,1.3,0.8,1.7l14,11.6c0.7,0.5,1.6,0.5,2.2,0l14-11.6c0.5-0.4,0.8-1,0.8-1.7"/>
		</g>
	</g>
</g>
<g>
	<g>
		<path class="st3" d="M41.1,33c0.8-0.4,1.7-0.5,2.5-0.7c0.8-0.1,1.7-0.2,2.5-0.2s1.7,0.1,2.5,0.2s1.7,0.3,2.5,0.7
			c-0.8,0.4-1.7,0.5-2.5,0.7c-0.8,0.1-1.7,0.2-2.5,0.2s-1.7-0.1-2.5-0.2C42.8,33.5,41.9,33.3,41.1,33z"/>
	</g>
	<g>
		<path class="st3" d="M37.2,43.7c0.8-0.4,1.7-0.5,2.5-0.7c0.8-0.1,1.7-0.2,2.5-0.2s1.7,0.1,2.5,0.2s1.7,0.3,2.5,0.7
			c-0.8,0.4-1.7,0.5-2.5,0.7c-0.8,0.1-1.7,0.2-2.5,0.2s-1.7-0.1-2.5-0.2C38.9,44.2,38.1,44,37.2,43.7z"/>
	</g>
	<g>
		<path class="st3" d="M41.1,54.4c0.8-0.4,1.7-0.5,2.5-0.7c0.8-0.1,1.7-0.2,2.5-0.2s1.7,0.1,2.5,0.2s1.7,0.3,2.5,0.7
			c-0.8,0.4-1.7,0.5-2.5,0.7c-0.8,0.1-1.7,0.2-2.5,0.2s-1.7-0.1-2.5-0.2C42.8,54.9,41.9,54.7,41.1,54.4z"/>
	</g>
</g>
<g>
	<g>
		<defs>
			<path id="SVGID_3_" d="M119.6,54.4H69.8c-2,0-3.5-1.6-3.5-3.5V22c0-2,1.6-3.5,3.5-3.5h49.8c2,0,3.5,1.6,3.5,3.5v28.9
				C123.2,52.8,121.6,54.4,119.6,54.4z"/>
		</defs>
		<clipPath id="SVGID_4_">
			<use xlink:href="#SVGID_3_"  style="overflow:visible;"/>
		</clipPath>
		<g class="st19">
			<path class="st0" d="M67.6,19.5L67.6,19.5l-1.3-0.8v3.7v28.2l0,0c0,0.4,0.1,0.8,0.2,1.1c0.2,0.6,0.5,1.1,0.8,1.5l0,0
				c0.2,0.2,0.5,0.5,0.7,0.6c0.5,0.3,1,0.5,1.6,0.5h50.1c0.8,0,1.5-0.3,2.1-0.8L67.6,19.5z"/>
			<path class="st0" d="M121.9,19.5L121.9,19.5L67.6,53.6c0.6,0.5,1.3,0.8,2.1,0.8h50.1c0.6,0,1.1-0.2,1.6-0.5
				c0.8-0.5,1.3-1.2,1.6-2.2c0.1-0.4,0.2-0.7,0.2-1.1l0,0V22.4v-3.7L121.9,19.5z"/>
			<path class="st3" d="M92.7,30.5L67.6,51.4c-0.8,0.7-1.3,1.8-1.3,3h56.8c0-1.2-0.5-2.3-1.3-3L96.7,30.5
				C95.6,29.5,93.9,29.5,92.7,30.5z"/>
			<g>
				<path class="st20" d="M66.3,18.3c0,1.2,0.5,2.3,1.3,3l25.1,20.9c1.2,1,2.8,1,4,0l25.1-20.9c0.8-0.7,1.3-1.8,1.3-3"/>
				<path class="st21" d="M66.3,18.3c0.1,0.8,0.3,1.6,0.8,2.2c0.4,0.6,1.2,1,1.8,1.5l3.8,2.9c2.5,1.9,5.1,3.9,7.5,5.8
					c2.5,2,5,4,7.5,6l3.7,3l1.8,1.5c0.2,0.1,0.3,0.2,0.4,0.3c0.1,0.1,0.2,0.1,0.3,0.2c0.2,0.1,0.5,0.1,0.7,0.1s0.5,0,0.7-0.1
					c0.1,0,0.2-0.1,0.3-0.2s0.2-0.1,0.4-0.3l1.8-1.5l3.7-3c2.5-2,4.9-4,7.5-6c2.5-2,5-3.9,7.5-5.8l3.8-2.9c0.6-0.5,1.3-0.9,1.8-1.5
					s0.8-1.4,0.8-2.2c0.1,0.8-0.1,1.6-0.5,2.3c-0.2,0.4-0.5,0.7-0.8,1l-0.9,0.8l-3.5,3.2c-2.4,2.1-4.7,4.3-7.1,6.4
					c-2.4,2.1-4.8,4.2-7.2,6.2l-3.6,3.1l-1.8,1.5c-0.1,0.1-0.4,0.3-0.6,0.4c-0.2,0.1-0.5,0.3-0.7,0.4c-0.5,0.2-1,0.3-1.6,0.3
					s-1.1-0.1-1.6-0.3c-0.3-0.1-0.5-0.2-0.7-0.4c-0.2-0.1-0.4-0.3-0.6-0.4l-1.8-1.5l-3.6-3.1c-2.4-2.1-4.8-4.1-7.2-6.2
					s-4.8-4.2-7.1-6.4l-3.5-3.2l-0.9-0.8c-0.3-0.3-0.6-0.6-0.8-1C66.4,20,66.3,19.1,66.3,18.3z"/>
			</g>
		</g>
	</g>
</g>
<g>
	<circle class="st10" cx="125.7" cy="40" r="10.1"/>
	<path class="st8" d="M130.5,36.3h-9.7c-0.3,0-0.6,0.3-0.6,0.6V43c0,0.3,0.3,0.6,0.6,0.6h9.7c0.3,0,0.6-0.3,0.6-0.6v-6.1
		C131.1,36.6,130.9,36.3,130.5,36.3z M129.8,37.3l-4.1,3.2l-4.1-3.2H129.8z M130.1,42.6h-8.9v-4.3l4.2,3.2c0.2,0.1,0.4,0.1,0.6,0
		l4.2-3.2L130.1,42.6L130.1,42.6z"/>
</g>
<g>
	<g>
		<path class="st14" d="M625.5,96.2h-85.7c-3.2,0-5.8-2.6-5.8-5.8V35.2c0-3.2,2.6-5.8,5.8-5.8h85.7c3.2,0,5.8,2.6,5.8,5.8v55.2
			C631.4,93.5,628.8,96.2,625.5,96.2z"/>
		<g>
			<path class="st3" d="M625.5,96.2h-85.7c-3.2,0-5.8-2.6-5.8-5.8V35.2c0-3.2,2.6-5.8,5.8-5.8h85.7c3.2,0,5.8,2.6,5.8,5.8v55.2
				C631.4,93.5,628.8,96.2,625.5,96.2z"/>
			<g>
				<g>
					<rect x="550.4" y="39.8" class="st14" width="64.5" height="6"/>
					<rect x="550.4" y="39.8" class="st22" width="7.9" height="6"/>
				</g>
				<g>
					<rect x="550.4" y="54.3" class="st22" width="17.9" height="14.9"/>
					<rect x="573.7" y="54.3" class="st22" width="17.9" height="14.9"/>
					<rect x="597.1" y="54.3" class="st22" width="17.9" height="14.9"/>
					<rect x="553" y="56.5" class="st23" width="12.7" height="10.6"/>
					<rect x="599.7" y="56.5" class="st23" width="12.7" height="10.6"/>
					<rect x="576.4" y="56.5" class="st23" width="12.7" height="10.6"/>
				</g>
				<rect x="550.4" y="75.9" class="st14" width="64.5" height="9.6"/>
			</g>
		</g>
	</g>
	<g>
		<circle class="st7" cx="631.4" cy="49" r="13"/>
		<g>
			<path class="st8" d="M636.8,43.4c-0.5-0.5-1.4-0.5-1.9,0l-4.8,4.8l0,0l0,0l0,0l-0.9,2.5c0,0.1,0,0.3,0.2,0.3c0.1,0,0.1,0,0.2,0
				l2.5-0.9l0,0l0,0l0,0l4.3-4.3l0.4-0.4C637.3,44.8,637.3,44,636.8,43.4z"/>
			<path class="st8" d="M634.6,54.9h-7.5c-0.8,0-1.5-0.7-1.5-1.5v-7.5c0-0.8,0.7-1.5,1.5-1.5h3.7c0.4,0,0.6,0.3,0.6,0.6
				s-0.3,0.6-0.6,0.6h-3.7c-0.1,0-0.2,0.1-0.2,0.2v7.5c0,0.1,0.1,0.2,0.2,0.2h7.5c0.1,0,0.2-0.1,0.2-0.2v-4.2c0-0.4,0.3-0.6,0.6-0.6
				s0.6,0.3,0.6,0.6v4.2C636.1,54.3,635.4,54.9,634.6,54.9z"/>
		</g>
	</g>
</g>
<g>
	<path class="st24" d="M527.3,171.5h53.3c2.8,0,5-2.2,5-5V92.6c0-2.8-2.2-5-5-5h-53.3c-2.8,0-5,2.2-5,5v73.8
		C522.3,169.2,524.6,171.5,527.3,171.5z"/>
	<g>
		<g>
			<defs>
				<path id="SVGID_5_" d="M514,171.5h66.3c2.9,0,5.3-2.4,5.3-5.3v-85c0-2.9-2.4-5.3-5.3-5.3H514c-2.9,0-5.3,2.4-5.3,5.3v85
					C508.8,169.1,511.1,171.5,514,171.5z"/>
			</defs>
			<clipPath id="SVGID_6_">
				<use xlink:href="#SVGID_5_"  style="overflow:visible;"/>
			</clipPath>
			<g class="st25">
				<path class="st26" d="M573,338.1l0.5,8.2c0,0-6.2,3.7-10,6.4s-7.6,3.8-10.5,2.4c-2.9-1.3-3-2-3-5.8s11.7-7.7,12.1-9
					c0.1-0.5,0.4-1,0.7-1.4l3.3-2.5l4.8-0.3C572,336.2,572.9,337,573,338.1z"/>
				<path class="st2" d="M573,335.4l0.5,8.2c0,0-6.2,3.7-10,6.4s-7.6,3.8-10.5,2.4s-3-2-3-5.8s11.7-7.7,12.1-9
					c0.1-0.5,0.4-1,0.7-1.4l3.3-2.5l4.8-0.3C572,333.4,572.9,334.3,573,335.4z"/>
				<path class="st27" d="M563.9,330.6l-0.4,6.1c0,0,4.7,2.1,8.3-0.3l-0.2-6.2L563.9,330.6z"/>
				<path class="st26" d="M551.6,330l1.1,8.1c0,0-5.9,4.2-9.4,7.2c-3.6,3-7.3,4.3-10.3,3.2s-3.1-1.7-3.4-5.5s11.1-8.6,11.4-9.9
					c0.1-0.5,0.3-1,0.6-1.4l3.1-2.8l4.7-0.7C550.5,328.1,551.5,328.9,551.6,330z"/>
				<path class="st2" d="M551.4,327.2l1.1,8.1c0,0-5.9,4.2-9.4,7.2c-3.6,3-7.3,4.3-10.3,3.2s-3.1-1.7-3.4-5.5s11.1-8.6,11.4-9.9
					c0.1-0.5,0.3-1,0.6-1.4l3.1-2.8l4.7-0.7C550.2,325.3,551.3,326.1,551.4,327.2z"/>
				<path class="st27" d="M542,323.1l0.1,6.2c0,0,4.9,1.7,8.2-1l-0.7-6.1L542,323.1z"/>
				<path class="st26" d="M539.4,201.5c0,0-3.4,60.7-2.7,65.8c0.7,5.1,3.2,55.2,3.2,55.2s9,1.3,11-1.2c0,0,0.6-51.4,0.4-54.2
					c-0.2-2.6,2.3-39.4,3.6-45.2c0.1-0.5,0.5-0.8,1-0.7l1,0.2c0.5,0.1,0.9,0.5,0.9,0.9c-0.3,6.3,0.4,44.8,0.7,48.5
					c0.3,4,3.3,60.4,3.3,60.4l11.6-0.6c0,0-0.5-57.6-0.4-60.6s5.8-45.3,4.2-66.7c-1.6-21.4-30.1-4-30.1-4L539.4,201.5z"/>
				<g>
					<g>
						<path class="st27" d="M522.5,140.8L522.5,140.8c0.7-0.4,0.9-1.2,0.6-1.9l-3-7c-0.3-0.7-1-1-1.6-0.7h-0.1
							c-0.6,0.3-0.8,1.2-0.5,1.9l3,7C521.2,140.8,521.9,141.1,522.5,140.8z"/>
						<path class="st27" d="M525.4,141.4L525.4,141.4c0.6-0.3,1.6,0.8,1.3,0.1c-1.5-3.1-2.8-6.1-3.7-9.1c-0.3-0.7-1-1-1.6-0.7l0,0
							c-0.6,0.3-0.8,1.1-0.6,1.8l2.9,7.2C524.1,141.4,524.8,141.7,525.4,141.4z"/>
						<path class="st27" d="M520.9,142.6L520.9,142.6c0.6-0.3,0.8-1.1,0.5-1.8l-3.1-7.1c-0.3-0.7-1-1-1.6-0.7l0,0
							c-0.6,0.3-0.8,1.1-0.5,1.8c0.5,2.3,1.6,4.7,3.1,7.1C519.6,142.6,520.3,142.9,520.9,142.6z"/>
						<path class="st27" d="M522.5,149.4L522.5,149.4c0.5-0.4,0.7-1.2,0.3-1.8l-5.2-8.7c-0.4-0.6-1.1-0.8-1.7-0.4l0,0
							c-0.5,0.4-0.7,1.2-0.3,1.8c1.1,2.9,3,5.8,5.2,8.7C521.2,149.6,522,149.8,522.5,149.4z"/>
						<path class="st27" d="M530.1,147.4c0.2-3.8-0.3-8-0.8-9.5c-0.4-1.1-0.7-1.5-1.5-1.4l0,0c-0.7,0.1-1.2,0.9-0.9,1.9
							s0.9,5.1,1,8.6L530.1,147.4z"/>
						<path class="st27" d="M527.4,152.4L527.4,152.4c2.6-1.6,3.4-5.3,2-8.6l-0.7-1.6c-0.8-1.6-0.3,0-1.5-0.7
							c-0.8-0.5-1.1-0.6-2.6-3.7l-4.5,0.4c0,0-1.6,6.4-0.1,9.5l3.2,4.3C524.7,155.3,524.8,154,527.4,152.4z"/>
					</g>
					<path class="st27" d="M529.1,148.9l10.4,19.6c0.1,1.8-3,6.5-7.5,5.3l-8.8-21.7L529.1,148.9z"/>
				</g>
				<path class="st0" d="M527.7,164.3c1.3-1.1,5.6-2.3,7-4.8c0.2-0.3,0.6-0.3,0.8,0l3.2,5.4l4.3-21c0.1-0.6,0.3-1.1,0.5-1.6l0,0
					c2-5.2,6.5-9.1,11.9-10.4l1.5-0.3c0,0,6.9-0.8,13.4-0.3h0.1c5.2,0.4,9.5,4.1,10.7,9.2l2,7.9c0,0,7.4,20.5,5.5,27
					c-0.8,2.7-13.2,7.4-14.8,8c0,0.4,0.1,0.7,0.2,1.1c1.5,8.5,2.9,12.4,3,18.9c0.1,6.6-38.8,4.1-37.7-2c1-6.1,3.1-15.5,4-21.1
					c0.9-5.7,0.5-5.6,0.5-5.6c-3.1,5.2-7.1,6.2-11,4c-1.2-0.7-3.9-11.8-5.2-13.7C527.5,164.7,527.5,164.4,527.7,164.3z"/>
				<path class="st28" d="M548.9,124.1c0,0-17.2,11-11.4,28.4c0.2,0.7,0.8,1.2,1.6,1.4l11.5,3.8c1.4,0.2,2.6-1,2.3-2.5
					c-0.9-4-1.6-15.8,4.2-23.2c2.2-2.8,5.6-1.1,10-3.7c13.3-8.1,7.2-26.2-2.5-24.7C558.7,104.5,548.9,124.1,548.9,124.1z"/>
				<path class="st28" d="M548.4,93.7c0,0,1.5-0.1,2.6,1.6s3.5,7.1,10.3,11.9c2.8,2,2.1,4.7,2.1,4.7l1.3,4c0,0,0.9,3.5,2.1,12.4
					c0,0,9.7-3.5,11.7-16.4s-4-22.1-8.1-25.2s-14.8-5.3-22.5,1.5C540.4,95,548.4,93.7,548.4,93.7z"/>
				<path class="st28" d="M545.7,90.3c0,0-11.3,13.6,0.9,26.1c10.7,10.9,2.6-27.6,2.6-27.6L545.7,90.3z"/>
				<path class="st27" d="M572.8,106.4c0.7,10.9-12.5,20.4-18,20.7c-5.5,0.4-10.6-7.9-11.3-18.8s2.4-20,13.4-20.7
					S572.1,95.5,572.8,106.4z"/>
				<path class="st27" d="M567.3,130.8l-1.9-13l-8.1,6l-0.3,7.7c0,0.2-2,3.6-2,3.8c0.1,1.8,2.2,5.7,2.9,6.8c0.1,0.2,0.3,0.2,0.5,0.1
					c2-1.4,12.1-9.1,12-11C570.4,131,567.4,131,567.3,130.8z"/>
				<path class="st28" d="M563,99"/>
				<path class="st28" d="M570.6,111.9c-0.9,3.1-2.6,6-4.7,9l1,5.5l9.4-11.7l-2.4-4.2C573.8,110.6,572.2,112.2,570.6,111.9z"/>
				<path class="st28" d="M547.2,89c-3.3,2.2-6.4,7.6-4.8,14.3l2.7,1.1c-0.4-3.4,3.2-15.2,4.6-15.1L547.2,89z"/>
				<path class="st28" d="M547.4,91.1c0,0,0.8,7.9,8.6,12.6l7-0.4l2.6-11.4L547.4,91.1z"/>
				<path class="st28" d="M548.4,93.7l-0.3-5.5l22.5-1.5l5.7,17.6l-3.4,14.7l-6.7-9.1c0,0,0.2-2.7-4-5S548.4,93.7,548.4,93.7z"/>
				<path class="st27" d="M566.5,109.5c0,0,0.2-0.5,0.8-1.6c0.8-1.4,2-2.4,3.2-2.7c0.8-0.2,1.6,0.1,2.2,0.9c0.9,1.2,1.3,4-0.6,6.7
					c-0.6,0.9-1.5,1.5-2.3,1.8c-0.1,0.1-0.3,0.1-0.4,0.1c-2.1,0.4-2.5-1.5-3.3-3.7C565.8,110.4,566.5,109.5,566.5,109.5z"/>
				<g>
					<g>
						<path class="st27" d="M566.9,194.3L566.9,194.3c-0.6,0-1.1,0.5-1.2,1.2c0,0-0.1,2.4-0.2,3.8s-0.3,4.2,0.5,4.2
							c0.9,0,1-1.5,1-2.2l0.7-6.5C567.9,194.1,567.5,194.3,566.9,194.3z"/>
						<path class="st27" d="M561.5,197.2L561.5,197.2c-0.7,0-1.3,0.6-1.4,1.3l-0.7,7.3c-0.1,0.7,0.4,1.3,1.1,1.3h0.1
							c0.6,0,1.2-0.6,1.3-1.3l0.7-7.3C562.6,197.8,562.1,197.2,561.5,197.2z"/>
						<path class="st27" d="M559.9,196L559.9,196c-0.6,0-1.4,2.1-1.5,2.8l-0.4,5.8c-0.1,0.7,0.4,1.3,1,1.3l0,0
							c0.6,0,1.2-0.6,1.2-1.3l0.7-7.4C561,196.6,560.5,196,559.9,196z"/>
						<path class="st27" d="M563.9,196.2L563.9,196.2c-0.6,0-1.2,0.6-1.2,1.3l-0.7,7.4c-0.1,0.7,0.4,1.3,1,1.3l0,0
							c0.6,0,1.2-0.6,1.2-1.3l0.7-7.4C564.9,196.8,564.5,196.2,563.9,196.2z"/>
						<path class="st27" d="M561,189.6L561,189.6c-0.7-0.2-1.4,0.2-1.7,1l-2.7,8c-0.3,0.8,0.1,1.5,0.7,1.8l0,0
							c0.7,0.2,1.4-0.2,1.7-1l2.7-8C562,190.7,561.6,189.9,561,189.6z"/>
						<path class="st27" d="M567.4,182.4L567.4,182.4c-3.2-0.1-8.1,6.3-8.4,9.9l-0.2,1.8c-0.2,1.8-0.7,2,0.2,3.2
							c0.9,1.2,0.4,5.8,5.2,5.9l0.1-1c0,0,2.4-5.4,3.5-7.7s2.4-2.9,2.6-6.3C570.6,184.7,570.5,182.4,567.4,182.4z"/>
					</g>
				</g>
			</g>
		</g>
		<g>
			<defs>
				<path id="SVGID_7_" d="M514,171.5h66.3c2.9,0,5.3-2.4,5.3-5.3v-85c0-2.9-2.4-5.3-5.3-5.3H514c-2.9,0-5.3,2.4-5.3,5.3v85
					C508.8,169.1,511.1,171.5,514,171.5z"/>
			</defs>
			<clipPath id="SVGID_8_">
				<use xlink:href="#SVGID_7_"  style="overflow:visible;"/>
			</clipPath>
			<path class="st29" d="M530.2,146.5l-7.7,4c-0.4,0.2-0.9,0-1.1-0.4l-8.2-16.1c-0.2-0.4,0-0.9,0.4-1.1l7.7-4c0.4-0.2,0.9,0,1.1,0.4
				l8.2,16.1C530.8,145.8,530.6,146.3,530.2,146.5z"/>
		</g>
		<g>
			<defs>
				<path id="SVGID_9_" d="M514,171.5h66.3c2.9,0,5.3-2.4,5.3-5.3v-85c0-2.9-2.4-5.3-5.3-5.3H514c-2.9,0-5.3,2.4-5.3,5.3v85
					C508.8,169.1,511.1,171.5,514,171.5z"/>
			</defs>
			<clipPath id="SVGID_10_">
				<use xlink:href="#SVGID_9_"  style="overflow:visible;"/>
			</clipPath>
			<path class="st30" d="M528.2,144.4l-6.1,3.1c-0.4,0.2-0.8,0-1-0.3l-6.5-12.7c-0.2-0.4,0-0.8,0.3-1l6.1-3.1c0.4-0.2,0.8,0,1,0.3
				l6.5,12.7C528.7,143.8,528.5,144.2,528.2,144.4z"/>
		</g>
		<g>
			<defs>
				<path id="SVGID_11_" d="M514,171.5h66.3c2.9,0,5.3-2.4,5.3-5.3v-85c0-2.9-2.4-5.3-5.3-5.3H514c-2.9,0-5.3,2.4-5.3,5.3v85
					C508.8,169.1,511.1,171.5,514,171.5z"/>
			</defs>
			<clipPath id="SVGID_12_">
				<use xlink:href="#SVGID_11_"  style="overflow:visible;"/>
			</clipPath>
			<circle class="st31" cx="526" cy="147" r="0.6"/>
		</g>
	</g>
</g>
<g>
	<g>
		<circle class="st10" cx="585.8" cy="150.9" r="17"/>
		<circle class="st13" cx="585.8" cy="150.9" r="17"/>
	</g>
	<path class="st8" d="M588.9,141h-0.3h-5.2h-0.7c0,0-1.8,0-1.8,1.8v16.1c0,1.8,1.8,1.8,1.8,1.8h6.2c0,0,1.8,0,1.8-1.8v-16.1
		C590.7,141,588.9,141,588.9,141z M585.8,160c-0.5,0-0.9-0.4-0.9-0.9s0.4-0.9,0.9-0.9s0.9,0.4,0.9,0.9
		C586.6,159.6,586.2,160,585.8,160z M582.2,157.5v-14.3h1.2h5.2h0.8v14.3H582.2z"/>
</g>
<g>
	<path class="st0" d="M59.4,190.5H5c-2.8,0-5-2.2-5-5v-71.3c0-2.8,2.2-5,5-5h54.4c2.8,0,5,2.2,5,5v71.3
		C64.4,188.3,62.2,190.5,59.4,190.5z"/>
	<g>
		<g>
			<defs>
				<path id="SVGID_13_" d="M60.4,190.5H4.1c-2.3,0-4.2-1.9-4.2-4.2v-83.5c0-2.3,1.9-4.2,4.2-4.2h56.3c2.3,0,4.2,1.9,4.2,4.2v83.5
					C64.5,188.7,62.7,190.5,60.4,190.5z"/>
			</defs>
			<clipPath id="SVGID_14_">
				<use xlink:href="#SVGID_13_"  style="overflow:visible;"/>
			</clipPath>
			<g class="st32">
				<path class="st3" d="M47.3,282.6c0.7-1.7,0.5-3.7-0.5-5.3l-22.5-34.1c-0.3-0.6-0.9-1-1.5-1.2l-1.6-0.4c-0.9-0.2-1.7,0.7-1.2,1.6
					l19.2,40.5c0.6,1.2,0.7,2.6,0.4,3.9l-14.8,56.3c-0.1,0.2-13-6.6-13-6.6l10-50.2c0.3-1.5,0-3-0.8-4.2
					c-5.1-7.8-21.6-31.3-24.4-41.1c-3.2-11,0.8-29.2,2.1-31.3c0.1-0.2,0.3-0.2,0.5-0.2l31.8-6.7l34.9,69.9c1.4,3,1.4,6.6,0,9.6
					l-27,58.4c-0.1,0.2-0.4,0.3-0.6,0.2l-11.7-7C26.4,334.5,42.8,293.7,47.3,282.6z"/>
				<g>
					<g>
						<path class="st33" d="M58.7,268.4l53.9-15.4l-25-24.7c-0.7-0.7-1.7-0.9-2.6-0.7l-51.1,14.5c-0.7,0.2-0.9,1-0.4,1.5L58.7,268.4
							"/>
						<g>
							<g>
								<g>
									<polygon class="st28" points="96.5,249.9 95,248.3 97.1,247.7 98.6,249.3 									"/>
									<polygon class="st28" points="93.4,250.8 91.8,249.2 93.9,248.6 95.5,250.2 									"/>
									<polygon class="st28" points="90.3,251.7 88.8,250.1 90.9,249.5 92.4,251.1 									"/>
									<polygon class="st28" points="87.2,252.5 85.7,251 87.8,250.4 89.3,251.9 									"/>
									<polygon class="st28" points="84.1,253.5 82.6,251.9 84.7,251.3 86.2,252.9 									"/>
									<polygon class="st28" points="81,254.4 79.4,252.8 81.5,252.2 83.1,253.8 									"/>
									<polygon class="st28" points="77.8,255.2 76.3,253.7 78.4,253.1 79.9,254.7 									"/>
									<polygon class="st28" points="74.8,256.1 73.2,254.6 75.3,254 76.9,255.5 									"/>
									<polygon class="st28" points="71.7,257 70.1,255.5 72.2,254.9 73.8,256.4 									"/>
									<polygon class="st28" points="68.5,257.9 66.9,256.4 69,255.8 70.6,257.3 									"/>
									<polygon class="st28" points="65.4,258.8 63.8,257.2 65.9,256.7 67.5,258.2 									"/>
									<polygon class="st28" points="62.3,259.7 60.7,258.1 62.8,257.6 64.4,259.1 									"/>
									<polygon class="st28" points="57,261.2 55.4,259.7 59.6,258.5 61.2,260 									"/>
									<polygon class="st28" points="99.6,249 98,247.4 101.2,246.6 102.8,248.1 									"/>
								</g>
								<polygon class="st28" points="99,251.1 98.2,250.3 100.2,249.7 101.1,250.5 								"/>
								<polygon class="st28" points="102.2,250.2 101.4,249.4 103.5,248.8 104.3,249.6 								"/>
								<polygon class="st28" points="92.7,252.9 91.9,252.1 94,251.5 94.8,252.3 								"/>
								<polygon class="st28" points="96,252 95.1,251.2 97.2,250.6 98.1,251.4 								"/>
								<polygon class="st28" points="86.5,254.7 85.7,253.9 87.8,253.3 88.6,254.1 								"/>
								<polygon class="st28" points="89.8,253.8 88.9,252.9 91,252.4 91.9,253.2 								"/>
								<polygon class="st28" points="80.3,256.5 79.4,255.7 81.5,255.1 82.4,255.9 								"/>
								<polygon class="st28" points="83.5,255.5 82.7,254.7 84.8,254.1 85.6,255 								"/>
								<polygon class="st28" points="77,257.4 76.2,256.6 78.3,256 79.1,256.8 								"/>
								<polygon class="st28" points="70.8,259.2 70,258.4 72.1,257.8 72.9,258.6 								"/>
								<polygon class="st28" points="74,258.3 73.2,257.4 75.3,256.8 76.1,257.7 								"/>
								<polygon class="st28" points="64.6,261 63.8,260.1 65.9,259.5 66.7,260.4 								"/>
								<polygon class="st28" points="67.8,260 67,259.2 69.1,258.6 69.9,259.4 								"/>
								<polygon class="st28" points="58.5,262.7 57.6,261.9 59.6,261.3 60.4,262.1 								"/>
								<polygon class="st28" points="61.6,261.8 60.7,261 62.8,260.4 63.7,261.2 								"/>
								<g>
									<polygon class="st28" points="96.2,246.9 94.6,245.3 96.7,244.7 94.5,242.6 96.6,242 100.4,245.7 									"/>
									<polygon class="st28" points="93,247.8 91.5,246.2 93.6,245.6 95.1,247.2 									"/>
									<polygon class="st28" points="89.9,248.6 88.3,247.1 90.4,246.5 92,248.1 									"/>
									<polygon class="st28" points="86.8,249.5 85.3,248 87.4,247.4 88.9,249 									"/>
									<polygon class="st28" points="83.7,250.4 82.2,248.9 84.3,248.3 85.8,249.8 									"/>
									<polygon class="st28" points="80.6,251.3 79.1,249.8 81.2,249.2 82.7,250.8 									"/>
									<polygon class="st28" points="77.5,252.2 75.9,250.7 78,250.1 79.6,251.6 									"/>
									<polygon class="st28" points="74.3,253.1 72.8,251.6 74.9,251 76.4,252.5 									"/>
									<polygon class="st28" points="71.3,254 69.7,252.5 71.8,251.9 73.4,253.4 									"/>
									<polygon class="st28" points="68.2,254.9 66.6,253.4 68.7,252.8 70.3,254.3 									"/>
									<polygon class="st28" points="65,255.8 63.4,254.3 65.5,253.7 67.1,255.2 									"/>
									<polygon class="st28" points="61.9,256.7 60.3,255.1 62.4,254.5 64,256.1 									"/>
									<polygon class="st28" points="54.6,258.8 53,257.2 59.3,255.4 60.9,257 									"/>
								</g>
								<g>
									<polygon class="st28" points="91.9,245.3 90.3,243.7 92.4,243.1 94,244.7 									"/>
									<polygon class="st28" points="88.7,246.1 87.2,244.6 89.3,244 90.8,245.6 									"/>
									<polygon class="st28" points="85.7,247 84.1,245.5 86.2,244.9 87.8,246.5 									"/>
									<polygon class="st28" points="82.6,247.9 81,246.4 83.1,245.8 84.7,247.3 									"/>
									<polygon class="st28" points="79.5,248.8 77.9,247.3 80,246.7 81.6,248.3 									"/>
									<polygon class="st28" points="76.3,249.7 74.8,248.2 76.9,247.6 78.4,249.1 									"/>
									<polygon class="st28" points="73.2,250.6 71.7,249.1 73.8,248.5 75.3,250 									"/>
									<polygon class="st28" points="70.1,251.5 68.6,250 70.7,249.4 72.2,250.9 									"/>
									<polygon class="st28" points="67,252.4 65.5,250.9 67.6,250.3 69.1,251.8 									"/>
									<polygon class="st28" points="63.9,253.3 62.3,251.8 64.4,251.2 66,252.7 									"/>
									<polygon class="st28" points="60.7,254.2 59.2,252.6 61.3,252 62.8,253.6 									"/>
									<polygon class="st28" points="57.6,255.1 56.1,253.5 58.2,252.9 59.7,254.5 									"/>
									<polygon class="st28" points="52.3,256.6 50.8,255.1 55,253.8 56.5,255.4 									"/>
								</g>
								<polygon class="st28" points="89.6,243 88.1,241.5 94.3,239.7 95.8,241.2 								"/>
								<polygon class="st28" points="86.5,243.9 84.9,242.4 87,241.8 88.6,243.3 								"/>
								<polygon class="st28" points="83.4,244.8 81.9,243.3 84,242.7 85.5,244.2 								"/>
								<polygon class="st28" points="62.6,250.8 61,249.3 81.9,243.3 83.4,244.8 								"/>
								<polygon class="st28" points="59.4,251.7 57.8,250.2 59.9,249.6 61.5,251.1 								"/>
								<polygon class="st28" points="56.2,252.6 54.7,251 56.8,250.4 58.3,252 								"/>
								<polygon class="st28" points="53.1,253.5 51.6,251.9 53.7,251.3 55.2,252.9 								"/>
								<polygon class="st28" points="50.1,254.3 48.5,252.8 50.6,252.2 52.2,253.7 								"/>
							</g>
							<polygon class="st28" points="82.4,241.2 74.7,233.6 51.8,240 59.5,247.6 							"/>
						</g>
					</g>
					<g>
						<path class="st34" d="M11.3,201c0,0,29.5,24.4,31.9,25.6c2.4,1.2-2.8,5.7-2.8,5.7H38L8.5,212.8C8.2,208,7.1,202.5,11.3,201z"
							/>
						<g>
							<path class="st34" d="M47.1,237.8L47.1,237.8c0.5-0.4,1.4-0.3,1.9,0.2c0,0,1.5,0.5,2.5,1.8c0.8,1,3.3,3.9,3.3,4.9
								s-1,1.3-1.7,0.9c-0.8-0.5-1.2-1.5-2.4-2.7c-1.5-1.6-5.2-4.7-5.2-4.7C45,237.7,46.6,238.3,47.1,237.8z"/>
							<path class="st34" d="M53.9,236.7L53.9,236.7c0.6-0.5,1.6-0.4,2.1,0.2l5.5,6.1c0.5,0.6,0.5,1.5-0.1,1.9l-0.1,0.1
								c-0.6,0.4-1.5,0.3-2-0.3l-5.5-6.1C53.3,238.1,53.3,237.2,53.9,236.7z"/>
							<path class="st34" d="M54.6,234.6L54.6,234.6c0.6-0.4,2.7,0.9,3.2,1.5l4.3,5c0.5,0.6,0.5,1.4-0.1,1.9l0,0
								c-0.6,0.4-1.4,0.3-2-0.3l-5.5-6.2C54,235.9,54,235.1,54.6,234.6z"/>
							<path class="st34" d="M51.1,237.5L51.1,237.5c0.6-0.4,1.4-0.3,2,0.3l5.5,6.2c0.5,0.6,0.5,1.4-0.1,1.9l0,0
								c-0.6,0.4-1.4,0.3-2-0.3l-5.5-6.2C50.5,238.7,50.6,237.9,51.1,237.5z"/>
							<path class="st34" d="M49.4,229.6L49.4,229.6c0.5-0.6,1.4-0.7,2.2-0.2l7.7,5.4c0.7,0.5,1,1.5,0.5,2.1l0,0
								c-0.5,0.6-1.4,0.7-2.2,0.2l-7.7-5.4C49.1,231.2,48.9,230.2,49.4,229.6z"/>
							<path class="st34" d="M38.8,227.3L38.8,227.3c2.9-2.2,11.5,0.3,14.2,3.3l1.3,1.5c1.3,1.5,2,1.3,1.9,3s3.5,5.6-0.8,8.9
								l-0.7-0.8c0,0-5.8-3.3-8.3-4.5c-2.5-1.3-4.1-0.9-6.6-4C37.3,231.6,35.9,229.5,38.8,227.3z"/>
						</g>
					</g>
					<g>
						<path class="st34" d="M83.8,234.2L83.8,234.2c-0.5,0.5-0.6,1.4-0.1,2l4.8,5.9c0.5,0.6,1.3,0.7,1.8,0.2l0.1-0.1
							c0.5-0.5,0.5-1.3,0-1.9l-4.8-5.9C85,233.8,84.3,233.7,83.8,234.2z"/>
						<path class="st34" d="M80.9,234.6L80.9,234.6c-0.5,0.5-0.5,1.3,0,1.9l4.9,6c0.5,0.6,1.2,0.7,1.7,0.2l0,0
							c0.5-0.5,0.5-1.3,0-1.9l-4.9-6C82.1,234.3,81.3,234.2,80.9,234.6z"/>
						<path class="st34" d="M84.6,231.6L84.6,231.6c-0.5,0.5-0.5,1.3,0,1.9l4.9,6c0.5,0.6,1.2,0.7,1.7,0.2l0,0
							c0.5-0.5,0.5-1.3,0-1.9l-4.9-6C85.8,231.2,85,231.1,84.6,231.6z"/>
						<path class="st34" d="M82.2,226.1L82.2,226.1c-0.5,0.4-0.5,1.3-0.1,1.9l6.1,8.2c0.4,0.6,1.2,0.7,1.7,0.3l0,0
							c0.5-0.4,0.5-1.3,0.1-1.9l-6.1-8.2C83.5,225.8,82.7,225.7,82.2,226.1z"/>
						<path class="st34" d="M74,231.2L74,231.2c-0.6,0.4-0.7,1.3-0.2,2l5,7.3c0.5,0.7,1.3,0.9,1.9,0.5l0,0c0.6-0.4,0.7-1.3,0.2-2
							l-5-7.3C75.5,231,74.6,230.8,74,231.2z"/>
						<path class="st34" d="M73.7,225.1L73.7,225.1c-2.1,2.7-1.5,6.9,1.3,9.5l1.4,1.2c1.4,1.3,1.3-0.2,2.9-0.2
							c1.6-0.1,5.1,5.3,8.1,1.3l-0.8-0.7l-1.4-8.2c0,0-1.4-2.3-4.2-4.6C78.1,221,75.7,222.4,73.7,225.1z"/>
						<path class="st34" d="M83.8,234.2L83.8,234.2c-0.5,0.5-0.6,1.4-0.1,2l4.8,5.9c0.5,0.6,1.3,0.7,1.8,0.2l0.1-0.1
							c0.5-0.5,0.5-1.3,0-1.9l-4.8-5.9C85,233.8,84.3,233.7,83.8,234.2z"/>
						<path class="st34" d="M80.9,234.6L80.9,234.6c-0.5,0.5-0.5,1.3,0,1.9l4.9,6c0.5,0.6,1.2,0.7,1.7,0.2l0,0
							c0.5-0.5,0.5-1.3,0-1.9l-4.9-6C82.1,234.3,81.3,234.2,80.9,234.6z"/>
						<path class="st34" d="M84.6,231.6L84.6,231.6c-0.5,0.5-0.5,1.3,0,1.9l4.9,6c0.5,0.6,1.2,0.7,1.7,0.2l0,0
							c0.5-0.5,0.5-1.3,0-1.9l-4.9-6C85.8,231.2,85,231.1,84.6,231.6z"/>
						<path class="st34" d="M82.2,226.1L82.2,226.1c-0.5,0.4-0.5,1.3-0.1,1.9l6.1,8.2c0.4,0.6,1.2,0.7,1.7,0.3l0,0
							c0.5-0.4,0.5-1.3,0.1-1.9l-6.1-8.2C83.5,225.8,82.7,225.7,82.2,226.1z"/>
						<path class="st34" d="M74,231.2L74,231.2c-0.6,0.4-0.7,1.3-0.2,2l5,7.3c0.5,0.7,1.3,0.9,1.9,0.5l0,0c0.6-0.4,0.7-1.3,0.2-2
							l-5-7.3C75.5,231,74.6,230.8,74,231.2z"/>
						<path class="st34" d="M73.7,225.1L73.7,225.1c-2.1,2.7-1.5,6.9,1.3,9.5l1.4,1.2c1.4,1.3,1.3-0.2,2.9-0.2
							c1.6-0.1,5.1,5.3,8.1,1.3l-0.8-0.7l-1.4-8.2c0,0-1.4-2.3-4.2-4.6C78.1,221,75.7,222.4,73.7,225.1z"/>
						<path class="st34" d="M83.8,234.2L83.8,234.2c-0.5,0.5-0.6,1.4-0.1,2l4.8,5.9c0.5,0.6,1.3,0.7,1.8,0.2l0.1-0.1
							c0.5-0.5,0.5-1.3,0-1.9l-4.8-5.9C85,233.8,84.3,233.7,83.8,234.2z"/>
						<path class="st34" d="M80.9,234.6L80.9,234.6c-0.5,0.5-0.5,1.3,0,1.9l4.9,6c0.5,0.6,1.2,0.7,1.7,0.2l0,0
							c0.5-0.5,0.5-1.3,0-1.9l-4.9-6C82.1,234.3,81.3,234.2,80.9,234.6z"/>
						<path class="st34" d="M84.6,231.6L84.6,231.6c-0.5,0.5-0.5,1.3,0,1.9l4.9,6c0.5,0.6,1.2,0.7,1.7,0.2l0,0
							c0.5-0.5,0.5-1.3,0-1.9l-4.9-6C85.8,231.2,85,231.1,84.6,231.6z"/>
						<path class="st34" d="M82.2,226.1L82.2,226.1c-0.5,0.4-0.5,1.3-0.1,1.9l6.1,8.2c0.4,0.6,1.2,0.7,1.7,0.3l0,0
							c0.5-0.4,0.5-1.3,0.1-1.9l-6.1-8.2C83.5,225.8,82.7,225.7,82.2,226.1z"/>
						<path class="st34" d="M74,231.2L74,231.2c-0.6,0.4-0.7,1.3-0.2,2l5,7.3c0.5,0.7,1.3,0.9,1.9,0.5l0,0c0.6-0.4,0.7-1.3,0.2-2
							l-5-7.3C75.5,231,74.6,230.8,74,231.2z"/>
						<path class="st34" d="M73.7,225.1L73.7,225.1c-2.1,2.7-1.5,6.9,1.3,9.5l1.4,1.2c1.4,1.3,1.3-0.2,2.9-0.2
							c1.6-0.1,5.1,5.3,8.1,1.3l-0.8-0.7l-1.4-8.2c0,0-1.4-2.3-4.2-4.6C78.1,221,75.7,222.4,73.7,225.1z"/>
						<path class="st34" d="M83.8,234.2L83.8,234.2c-0.5,0.5-0.6,1.4-0.1,2l4.8,5.9c0.5,0.6,1.3,0.7,1.8,0.2l0.1-0.1
							c0.5-0.5,0.5-1.3,0-1.9l-4.8-5.9C85,233.8,84.3,233.7,83.8,234.2z"/>
						<path class="st34" d="M80.9,234.6L80.9,234.6c-0.5,0.5-0.5,1.3,0,1.9l4.9,6c0.5,0.6,1.2,0.7,1.7,0.2l0,0
							c0.5-0.5,0.5-1.3,0-1.9l-4.9-6C82.1,234.3,81.3,234.2,80.9,234.6z"/>
						<path class="st34" d="M84.6,231.6L84.6,231.6c-0.5,0.5-0.5,1.3,0,1.9l4.9,6c0.5,0.6,1.2,0.7,1.7,0.2l0,0
							c0.5-0.5,0.5-1.3,0-1.9l-4.9-6C85.8,231.2,85,231.1,84.6,231.6z"/>
						<path class="st34" d="M82.2,226.1L82.2,226.1c-0.5,0.4-0.5,1.3-0.1,1.9l6.1,8.2c0.4,0.6,1.2,0.7,1.7,0.3l0,0
							c0.5-0.4,0.5-1.3,0.1-1.9l-6.1-8.2C83.5,225.8,82.7,225.7,82.2,226.1z"/>
						<path class="st34" d="M74,231.2L74,231.2c-0.6,0.4-0.7,1.3-0.2,2l5,7.3c0.5,0.7,1.3,0.9,1.9,0.5l0,0c0.6-0.4,0.7-1.3,0.2-2
							l-5-7.3C75.5,231,74.6,230.8,74,231.2z"/>
						<path class="st34" d="M73.7,225.1L73.7,225.1c-2.1,2.7-1.5,6.9,1.3,9.5l1.4,1.2c1.4,1.3,1.3-0.2,2.9-0.2
							c1.6-0.1,5.1,5.3,8.1,1.3l-0.8-0.7l-1.4-8.2c0,0-1.4-2.3-4.2-4.6C78.1,221,75.7,222.4,73.7,225.1z"/>
					</g>
					<path class="st4" d="M34.4,147.1l11.8,1.2c4.1,0.3,7.5,3.4,8.3,7.5l7.2,35.8l8.2,24.2c0,0,5.2,6.5,3.5,11.9l-26.6-26.3
						l-6.6-37.1"/>
					<path class="st4" d="M34.2,221.5l-30-3.1c-4-0.4-6.7-4.3-5.7-8.3l12.3-48.4c2.2-8.8,10.2-15,19.3-14.8l4.3,0.1
						c12.5,0.3,21.4,12.2,18.3,24.4l-11.4,45C40.5,219.8,37.5,221.9,34.2,221.5z"/>
					<path class="st4" d="M13.1,171.1l2,32.4l30.8,23.3c-5.5,2.2-5.3,7.8-5.3,7.8l-40.5-26c0,0-1.6-29.8-1-36.2
						c0.3-2.9,0.8-10.8,1.5-14.1c0.6-3.3,2.3-5.9,4.8-7.9c1.6-1.3,5.4-2,7.4-2.2l2.9-0.3c4.2-0.4,8.5-0.7,12.7-0.7h6"/>
					<g>
						<path class="st34" d="M30,131.2c-1,2.4,0.2,6.4-2.9,5s-7.9-5.1-6.5-9.8c0.7-2.5,2.3-4.6,5.4-3.2S31,128.8,30,131.2z"/>
						<path class="st34" d="M24.4,147.3l2-14.9l11.5,8.7l-0.4,6.8c0,0.2-0.2,2.1-0.2,2.3l-4.9,5.8l-8.4-6.3
							C24,149.4,24.3,147.4,24.4,147.3z"/>
						<path class="st34" d="M25.1,128.9c-1.1,11.2,3.6,12.5,8.4,14.5c4.7,2.1,8.3,2.5,10.4,2.2c5.4-0.8,7.6-7.4,8.7-18.3
							c1.1-11,0.5-16.9-10.6-18C30.9,108.2,26.2,117.7,25.1,128.9z"/>
					</g>
					<path class="st28" d="M51,110.4c-0.6-1.4-1.3-2.5-2.1-3.1c-3.3-2.6-6.4-4.6-11.8-5.1S20.5,102.6,17,114
						c-0.5,1.5-0.7,2.3-0.9,6.1c-0.2,3.8,1.8,13.3,9.6,17.1c-0.2-0.7-0.3-1.1-0.5-1.8c-1-0.7-2-1.8-2.8-2.9c-1.9-2.8-1.4-5.8-0.4-7
						c1.6-2.1,4.2-0.4,5.6,2c0.6,1.1,0.8,1.7,0.8,1.7l0,0l0.5-5.4c0.1-1.1,0.6-2.2,1.4-3c0.8-0.8,1.4-1.8,1.7-2.9l0.3-1
						c0.3-1.3,1.5-2.3,2.8-2.3l16.3-0.8C51.5,113.7,51.6,111.8,51,110.4z"/>
					<g>
						<g>
							<path class="st2" d="M33.8,102.3c-1.3,0.2-2.6,0.6-3.8,1.1c-4.8,2.3-7.1,5.2-8.9,10.8l-1.8,5.7c-0.6,2.1,0.7,3.4,3,3l4.9-0.9
								c-2.3,0.4-3.6-0.9-3-3l1.8-5.7c2-6.5,5.1-9.7,10.8-11.5L33.8,102.3z"/>
							<path class="st35" d="M41.8,103.1c-1.9-1.3-4.3-1.6-6.5-0.8c-5.3,1.9-9.2,5.7-10.9,10.9l-1.8,5.7c-0.6,2.1,2.3,3.6,4.6,3.1
								l1.1-0.2c-2.3,0.4-2.1-1.2-1.4-3.2l0.4-1.2l1.4-4.5c0.7-2.1,1.5-4.6,3.5-6.1c5.2-4.1,5.8-4,10.4-3.2L41.8,103.1z"/>
						</g>
						<g>
							<path class="st35" d="M28,119.3c-0.7-1.1-1.6-1.8-2.5-1.9l0,0l0,0c-0.1,0-0.2,0-0.3,0l-2.9-0.3l-0.2,2
								c-0.3,0.3-0.5,0.7-0.8,1.2c-1.8,3.4-2,8.4-0.4,11.4l-0.2,1.9l2.8,0.3c1.4,0.2,3-0.8,4.1-2.9C29.7,127.4,29.8,122.2,28,119.3z
								"/>
							
								<ellipse transform="matrix(9.901962e-02 -0.9951 0.9951 9.901962e-02 -104.949 134.8029)" class="st2" cx="22" cy="125.4" rx="8.3" ry="4.6"/>
							<path class="st36" d="M23.4,121.6c-1.1-1.8-2.8-1.5-4,0.6c-1.1,2.1-1.2,5.2-0.1,7c1.1,1.8,2.8,1.5,4-0.6
								C24.4,126.5,24.5,123.3,23.4,121.6z M22.9,127.9c-0.9,1.7-2.3,1.9-3.1,0.5s-0.8-3.9,0.1-5.5c0.9-1.7,2.3-1.9,3.1-0.5
								C23.8,123.8,23.8,126.2,22.9,127.9z"/>
							
								<ellipse transform="matrix(9.901962e-02 -0.9951 0.9951 9.901962e-02 -105.4155 134.2272)" class="st36" cx="21.4" cy="125.3" rx="2" ry="1.1"/>
						</g>
						<path class="st35" d="M37.5,142.4c-3,0.3-5.9-0.7-8.2-2.8c-2-1.9-3.4-4.5-4-7.3l1.1-1.3c0.3,3,1.7,5.8,3.8,7.7
							c2.1,1.9,4.6,2.8,7.2,2.5L37.5,142.4z"/>
						<path class="st35" d="M36.9,143.3l3.7-0.4c0.6-0.1,1.1-0.7,1-1.3l-0.1-0.8c-0.1-0.6-0.6-1.1-1.3-1l-3.7,0.4
							c-0.6,0.1-1.1,0.7-1,1.3l0.1,0.8C35.7,143,36.2,143.4,36.9,143.3z"/>
					</g>
				</g>
				<polygon class="st8" points="32.4,155.9 20.2,148.5 23,144.3 31.4,149.6 				"/>
				<polygon class="st8" points="32.4,155.9 38.6,151 38.1,146.7 34.4,149.6 				"/>
			</g>
		</g>
	</g>
</g>
<g>
	<circle class="st11" cx="64.6" cy="190.3" r="18.7"/>
	<g>
		<path class="st8" d="M64.6,191c2.5,0,4.4-2,4.4-4.4c0-2.5-2-4.4-4.4-4.4s-4.4,2-4.4,4.4C60.1,189,62.1,191,64.6,191z"/>
		<path class="st8" d="M56.9,198.4h15.4c0.3,0,0.5-0.3,0.4-0.5c-0.7-2.7-2.7-4.9-5.2-5.9c-0.1,0-0.2,0-0.3,0
			c-0.8,0.3-1.6,0.5-2.5,0.5s-1.8-0.2-2.5-0.5c-0.1,0-0.2,0-0.3,0c-2.6,0.9-4.6,3.1-5.2,5.9C56.4,198.1,56.6,198.4,56.9,198.4z"/>
	</g>
</g>
<g>
	<g>
		<defs>
			<path id="SVGID_15_" d="M446.9,375.4H625c2.3,0,4.1-1.9,4.1-4.1V223.7c0-2.3-1.9-4.1-4.1-4.1H446.9c-2.3,0-4.1,1.9-4.1,4.1v147.6
				C442.7,373.6,444.6,375.4,446.9,375.4z"/>
		</defs>
		<clipPath id="SVGID_16_">
			<use xlink:href="#SVGID_15_"  style="overflow:visible;"/>
		</clipPath>
		<g class="st37">
			<path class="st28" d="M560.4,226.8c0,0-15-5.4-24.7,3.4c-9,8.2-10,20.6,2.4,30.2C550.5,269.9,560.4,226.8,560.4,226.8z"/>
			<polygon class="st27" points="529.9,260.3 525.9,271.5 530.9,275.4 			"/>
			<path class="st27" d="M560.3,233.1c-8.8-2.5-27-1.2-29.4,17.1c-3.4,20.1-0.5,39.1,6.1,40.9c6.5,1.8,30.3-2,38.4-16.1
				C585.5,257.3,578.6,238.3,560.3,233.1z"/>
			<path class="st27" d="M611.2,343l8.7,30.2c1.3,4.9-1.8,10-6.8,11.1l-0.8,0.2c-4.8,1.1-9.6-1.9-10.7-6.7l-8.1-30.3
				c-1-4.3,1.3-8.8,5.4-10.4l0.3-0.1C604.1,334.9,609.8,337.8,611.2,343z"/>
			<g>
				<path class="st27" d="M473.6,315.7l33.4,38.4l5.8-9.5l18.3,6.4l-9.3,17.6c-4.1,7.8-14.6,9.4-20.8,3.2l-37.2-50.6L473.6,315.7z"
					/>
				<path class="st27" d="M473.6,315.7c0,0-3.9-5.7-5.5-8.8s-3.2-7.9-4.9-9.1c-1.1-0.8-5-4.2-8.3-6.6c-1.9-1.3-3.5-2.2-4.4-2.6
					c-1.3-0.5-1.8,0.1-1.9,0.7c-0.1,0.5,0.7,1.3,1.9,2c1.1,0.7,1.9,1.6,3,2.6c1.8,1.6,3.3,3.5,3.3,3.5s-5.1,6-5.7,7.1
					c-0.6,1-0.2,5.4,1.1,6.8c1.3,1.4,3.4,3.6,7.9,6.8c1.4,1,3.9,3.1,3.9,3.1L473.6,315.7z"/>
			</g>
			<path class="st26" d="M615.9,347l-20.2,5.7c0.9,6.1,2.4,12.9,5.6,24.7h-67c-1.3-6.2-2.9-20.8-2.9-20.8l-1.8,1.9l-21.8-14.2
				c5-9.6,8.2-14.1,12.6-22.7c0.4-0.8,0.8-1.6,1.2-2.3c5.2-10.2,16.6-16.7,28.1-17.1l14.4-0.5c1.2-0.3,8.9-0.1,16.4,0.1
				c9.3,0.3,17.6,5.7,21.7,14C607.3,326.1,610.7,335.1,615.9,347z"/>
			<path class="st27" d="M564.6,284.6l7.5,18.6c-0.5,1.2-7,9.7-18.4,4.4l-4.9-21.4L564.6,284.6z"/>
			<path class="st28" d="M564.9,224.9c-15.1-0.2-27.9,6.2-26.7,22.4c1,14.4,16,21.8,17.8,27c1.3,3.9,0.9,6.1,1.1,9
				c0.7,11.5,4.7,14.6,4.7,14.6l43.7-15.5c0,0,3.1-5.2-5.6-14.4s-8.5-12.3-10.3-19.3C588.2,243.5,580.2,225.1,564.9,224.9z"/>
			<g>
				
					<rect x="572.8" y="248.9" transform="matrix(0.7071 -0.7071 0.7071 0.7071 -8.7643 481.5009)" class="st35" width="8.1" height="4.8"/>
				<path class="st38" d="M558.6,268.6c0,10.3-7.3,18.6-16.3,18.6"/>
				<path class="st39" d="M543,289.6h-5c-1.2,0-2.2-1-2.2-2.2V287c0-1.2,1-2.2,2.2-2.2h5c1.2,0,2.2,1,2.2,2.2v0.4
					C545.2,288.6,544.2,289.6,543,289.6z"/>
				<circle class="st39" cx="566.1" cy="262.1" r="11.7"/>
				<circle class="st2" cx="565.1" cy="262.5" r="11.7"/>
				<path class="st36" d="M565.1,254.2c-4.6,0-8.3,3.7-8.3,8.3s3.7,8.3,8.3,8.3c4.6,0,8.3-3.7,8.3-8.3
					C573.5,257.9,569.7,254.2,565.1,254.2z M565.1,269.1c-3.6,0-6.6-3-6.6-6.6s3-6.6,6.6-6.6s6.6,3,6.6,6.6S568.8,269.1,565.1,269.1
					z"/>
				<circle class="st36" cx="565.1" cy="262.5" r="4"/>
				<path class="st2" d="M580.8,251.3l-4-4c-0.7-0.7-0.7-2,0-2.7l7.1-7.1c0.6-0.6,1.5-0.6,2.1,0l2,2c2,2,2,5.2,0,7.2l-4.6,4.6
					C582.8,252.1,581.6,252.1,580.8,251.3z"/>
			</g>
		</g>
	</g>
</g>
</svg>
