<?xml version="1.0" encoding="utf-8"?>
<!-- Generator: Adobe Illustrator 22.0.0, SVG Export Plug-In . SVG Version: 6.00 Build 0)  -->
<svg version="1.1" id="Layer_1" xmlns="http://www.w3.org/2000/svg" xmlns:xlink="http://www.w3.org/1999/xlink" x="0px" y="0px"
	 viewBox="0 0 688 1344" style="enable-background:new 0 0 688 1344;" xml:space="preserve">
<style type="text/css">
	.st0{clip-path:url(#SVGID_2_);}
	.st1{clip-path:url(#SVGID_6_);}
	.st2{clip-path:url(#SVGID_7_);}
	.st3{opacity:0.5;clip-path:url(#SVGID_10_);}
	.st4{clip-path:url(#SVGID_14_);}
	.st5{clip-path:url(#SVGID_15_);}
	.st6{opacity:0.2;clip-path:url(#SVGID_16_);fill:url(#SVGID_17_);enable-background:new    ;}
	.st7{opacity:0.2;clip-path:url(#SVGID_16_);fill:#3A8DDE;enable-background:new    ;}
	.st8{opacity:0.2;clip-path:url(#SVGID_16_);fill:#DCE6F8;enable-background:new    ;}
	.st9{clip-path:url(#SVGID_19_);}
	.st10{clip-path:url(#SVGID_23_);}
	.st11{clip-path:url(#SVGID_24_);}
</style>
<g>
	<g>
		<g>
			<defs>
				<rect id="SVGID_1_" x="-0.1" y="-0.1" width="688" height="1343.4"/>
			</defs>
			<clipPath id="SVGID_2_">
				<use xlink:href="#SVGID_1_"  style="overflow:visible;"/>
			</clipPath>
			<g class="st0">
				<g>
					<defs>
						
							<rect id="SVGID_3_" x="-1498.6" y="146.6" transform="matrix(0.5525 -0.8335 0.8335 0.5525 -768.6096 91.6943)" width="2399.4" height="1230.1"/>
					</defs>
					<defs>
						
							<rect id="SVGID_4_" x="-1498.6" y="146.6" transform="matrix(0.5525 -0.8335 0.8335 0.5525 -768.6096 91.6943)" width="2399.4" height="1230.1"/>
					</defs>
					<defs>
						
							<rect id="SVGID_5_" x="-1498.6" y="146.6" transform="matrix(0.5525 -0.8335 0.8335 0.5525 -768.6096 91.6943)" width="2399.4" height="1230.1"/>
					</defs>
					<clipPath id="SVGID_6_">
						<use xlink:href="#SVGID_3_"  style="overflow:visible;"/>
					</clipPath>
					<clipPath id="SVGID_7_" class="st1">
						<use xlink:href="#SVGID_4_"  style="overflow:visible;"/>
					</clipPath>
					<clipPath id="SVGID_8_" class="st2">
						<use xlink:href="#SVGID_5_"  style="overflow:visible;"/>
					</clipPath>
				</g>
			</g>
		</g>
	</g>
	<g>
		<g>
			<defs>
				<rect id="SVGID_9_" x="-0.1" y="-0.1" width="688" height="1343.4"/>
			</defs>
			<clipPath id="SVGID_10_">
				<use xlink:href="#SVGID_9_"  style="overflow:visible;"/>
			</clipPath>
			<g class="st3">
				<g>
					<defs>
						
							<rect id="SVGID_11_" x="-1498.6" y="146.6" transform="matrix(0.5525 -0.8335 0.8335 0.5525 -768.6096 91.6943)" width="2399.4" height="1230.1"/>
					</defs>
					<defs>
						
							<rect id="SVGID_12_" x="-1498.6" y="146.6" transform="matrix(0.5525 -0.8335 0.8335 0.5525 -768.6096 91.6943)" width="2399.4" height="1230.1"/>
					</defs>
					<defs>
						
							<rect id="SVGID_13_" x="-1498.6" y="146.6" transform="matrix(0.5525 -0.8335 0.8335 0.5525 -768.6096 91.6943)" width="2399.4" height="1230.1"/>
					</defs>
					<clipPath id="SVGID_14_">
						<use xlink:href="#SVGID_11_"  style="overflow:visible;"/>
					</clipPath>
					<clipPath id="SVGID_15_" class="st4">
						<use xlink:href="#SVGID_12_"  style="overflow:visible;"/>
					</clipPath>
					<clipPath id="SVGID_16_" class="st5">
						<use xlink:href="#SVGID_13_"  style="overflow:visible;"/>
					</clipPath>
					
						<linearGradient id="SVGID_17_" gradientUnits="userSpaceOnUse" x1="2928.5845" y1="-861.2947" x2="6656.6104" y2="-861.2947" gradientTransform="matrix(0.5525 -0.8335 0.8335 0.5525 -2412.7146 5661.5845)">
						<stop  offset="0" style="stop-color:#5DBDE4"/>
						<stop  offset="1" style="stop-color:#3A8DDE"/>
					</linearGradient>
					<path class="st6" d="M-1407.6,2785c0,0,89.4-473.6,392.6-688s723.1-302.7,887.4-565.3S20.8,623,291,244.9
						S950.9-94.9,950.9-94.9L143.6-630.1l-1335,2013.7l-724.9,1093.5C-1916.3,2477.1-1404.2,2787.3-1407.6,2785z"/>
					<path class="st7" d="M-1101.4,2323.2c0,0,89.4-473.6,392.6-688s723.1-302.7,887.4-565.3S327,161.2,597.2-217
						S1257-556.8,1257-556.8L449.7-1092l-1335,2013.7l-724.8,1093.5C-1610.1,2015.2-1098,2325.4-1101.4,2323.2z"/>
					<path class="st8" d="M-807.4,1879.7c0,0,89.4-473.6,392.6-688s723.2-302.8,887.5-565.3S621-282.3,891.2-660.4
						s659.8-339.8,659.8-339.8l-807.2-535.2l-1335,2013.7l-724.9,1093.5C-1316.1,1571.8-804,1881.9-807.4,1879.7z"/>
				</g>
			</g>
		</g>
	</g>
	<g>
		<g>
			<defs>
				<rect id="SVGID_18_" x="-0.1" y="-0.1" width="688" height="1343.4"/>
			</defs>
			<clipPath id="SVGID_19_">
				<use xlink:href="#SVGID_18_"  style="overflow:visible;"/>
			</clipPath>
			<g class="st9">
				<g>
					<defs>
						
							<rect id="SVGID_20_" x="-1498.6" y="146.6" transform="matrix(0.5525 -0.8335 0.8335 0.5525 -768.6096 91.6943)" width="2399.4" height="1230.1"/>
					</defs>
					<defs>
						
							<rect id="SVGID_21_" x="-1498.6" y="146.6" transform="matrix(0.5525 -0.8335 0.8335 0.5525 -768.6096 91.6943)" width="2399.4" height="1230.1"/>
					</defs>
					<defs>
						
							<rect id="SVGID_22_" x="-1498.6" y="146.6" transform="matrix(0.5525 -0.8335 0.8335 0.5525 -768.6096 91.6943)" width="2399.4" height="1230.1"/>
					</defs>
					<clipPath id="SVGID_23_">
						<use xlink:href="#SVGID_20_"  style="overflow:visible;"/>
					</clipPath>
					<clipPath id="SVGID_24_" class="st10">
						<use xlink:href="#SVGID_21_"  style="overflow:visible;"/>
					</clipPath>
					<clipPath id="SVGID_25_" class="st11">
						<use xlink:href="#SVGID_22_"  style="overflow:visible;"/>
					</clipPath>
				</g>
			</g>
		</g>
	</g>
</g>
</svg>
