<svg width="1460" height="1372" viewBox="0 0 1460 1372" fill="none" xmlns="http://www.w3.org/2000/svg">
<g opacity="0.5">
<path opacity="0.4" d="M767.019 -325.209C767.019 -325.209 1324.93 -98.1188 1512.28 326.566C1699.63 751.251 1703.5 1287.54 1984.46 1554C2265.29 1820.46 3060.67 1961.31 3456.73 2386.12C3852.8 2810.93 3709.19 3278.74 3709.19 3278.74L4565.19 2422.74L2429.89 287.447L1270.44 -872C1270.44 -871.875 763.395 -321.584 767.019 -325.209Z" fill="#DEE7F8"/>
<path opacity="0.2" d="M0.681936 -855.966C0.681936 -855.966 558.596 -628.876 745.943 -204.191C933.289 220.493 937.163 756.786 1218.12 1023.24C1499.08 1289.7 2294.33 1430.56 2690.39 1855.37C3086.46 2280.18 2942.85 2747.98 2942.85 2747.98L3798.85 1891.99L1663.55 -243.185L504.105 -1402.63C504.105 -1402.63 -2.94251 -852.342 0.681936 -855.966Z" fill="url(#paint0_linear)"/>
<path opacity="0.2" d="M490.357 -366.167C490.357 -366.167 1048.27 -139.076 1235.62 285.608C1422.96 710.293 1426.84 1246.59 1707.79 1513.04C1988.63 1779.5 2784 1920.36 3180.07 2345.17C3576.13 2769.98 3432.53 3237.78 3432.53 3237.78L4288.52 2381.79L2153.23 246.49L993.905 -912.958C993.905 -912.958 486.733 -362.667 490.357 -366.167Z" fill="#3E8EDE"/>
</g>
<defs>
<linearGradient id="paint0_linear" x1="76.1084" y1="-974.55" x2="3370.66" y2="2320" gradientUnits="userSpaceOnUse">
<stop stop-color="#5DBEE5"/>
<stop offset="1" stop-color="#4689C8"/>
</linearGradient>
</defs>
</svg>
